<svg id="AMZNO" xmlns="http://www.w3.org/2000/svg" width="70" height="70" viewBox="0 0 70 70">
  <rect id="Rectangle_13501" data-name="Rectangle 13501" width="70" height="70" fill="rgba(11,239,160,0.47)" opacity="0"/>
  <g id="amazon-icon-seeklogo.com" transform="translate(4.511 7.563)">
    <path id="Path_40258" data-name="Path 40258" d="M50.1,194.479c-22.118,10.526-35.845,1.719-44.631-3.63-.544-.337-1.468.079-.666,1,2.927,3.549,12.521,12.1,25.043,12.1s19.986-6.837,20.918-8.03.272-1.835-.664-1.444Zm6.212-3.431c-.594-.773-3.612-.918-5.511-.684s-4.757,1.389-4.509,2.087c.127.261.387.144,1.694.027s4.981-.594,5.746.406-1.171,5.8-1.525,6.576.131.973.773.458a10.032,10.032,0,0,0,2.552-3.736c.765-1.9,1.231-4.544.78-5.133Z" transform="translate(0 -149.928)" fill="#f90"/>
    <path id="Path_40259" data-name="Path 40259" d="M72.243,23.072c0,2.762.07,5.065-1.326,7.518a5.748,5.748,0,0,1-4.906,3.221c-2.722,0-4.308-2.074-4.308-5.135,0-6.043,5.414-7.139,10.54-7.139Zm7.149,17.28a1.48,1.48,0,0,1-1.675.169A17.451,17.451,0,0,1,73.649,35.8c-3.889,3.969-6.641,5.155-11.686,5.155C56,40.95,51.354,37.271,51.354,29.9a12.046,12.046,0,0,1,7.558-11.586c3.849-1.7,9.223-1.994,13.331-2.463v-.917c0-1.685.129-3.679-.858-5.135a4.744,4.744,0,0,0-3.979-1.845c-2.7,0-5.115,1.386-5.7,4.258a1.483,1.483,0,0,1-1.226,1.3l-6.88-.738a1.256,1.256,0,0,1-1.057-1.486C54.126,2.951,61.654.438,68.394.438c3.45,0,7.957.917,10.679,3.53,3.45,3.221,3.121,7.518,3.121,12.194V27.21c0,3.32,1.376,4.776,2.672,6.571a1.332,1.332,0,0,1-.02,1.884c-1.446,1.206-4.018,3.45-5.434,4.706l-.02-.02" transform="translate(-37.015)" fill-rule="evenodd"/>
    <path id="Path_40260" data-name="Path 40260" d="M50.1,194.479c-22.118,10.526-35.845,1.719-44.631-3.63-.544-.337-1.468.079-.666,1,2.927,3.549,12.521,12.1,25.043,12.1s19.986-6.837,20.918-8.03.272-1.835-.664-1.444Zm6.212-3.431c-.594-.773-3.612-.918-5.511-.684s-4.757,1.389-4.509,2.087c.127.261.387.144,1.694.027s4.981-.594,5.746.406-1.171,5.8-1.525,6.576.131.973.773.458a10.032,10.032,0,0,0,2.552-3.736c.765-1.9,1.231-4.544.78-5.133Z" transform="translate(0 -149.928)" fill="#f90"/>
    <path id="Path_40261" data-name="Path 40261" d="M72.243,23.072c0,2.762.07,5.065-1.326,7.518a5.748,5.748,0,0,1-4.906,3.221c-2.722,0-4.308-2.074-4.308-5.135,0-6.043,5.414-7.139,10.54-7.139Zm7.149,17.28a1.48,1.48,0,0,1-1.675.169A17.451,17.451,0,0,1,73.649,35.8c-3.889,3.969-6.641,5.155-11.686,5.155C56,40.95,51.354,37.271,51.354,29.9a12.046,12.046,0,0,1,7.558-11.586c3.849-1.7,9.223-1.994,13.331-2.463v-.917c0-1.685.129-3.679-.858-5.135a4.744,4.744,0,0,0-3.979-1.845c-2.7,0-5.115,1.386-5.7,4.258a1.483,1.483,0,0,1-1.226,1.3l-6.88-.738a1.256,1.256,0,0,1-1.057-1.486C54.126,2.951,61.654.438,68.394.438c3.45,0,7.957.917,10.679,3.53,3.45,3.221,3.121,7.518,3.121,12.194V27.21c0,3.32,1.376,4.776,2.672,6.571a1.332,1.332,0,0,1-.02,1.884c-1.446,1.206-4.018,3.45-5.434,4.706l-.02-.02" transform="translate(-37.015)" fill-rule="evenodd"/>
  </g>
</svg>
