<svg id="BTCUSD" xmlns="http://www.w3.org/2000/svg" width="70" height="70" viewBox="0 0 70 70">
  <rect id="Rectangle_13501" data-name="Rectangle 13501" width="70" height="70" fill="rgba(11,239,160,0.47)" opacity="0"/>
  <g id="_1421344023328" transform="translate(5 5)">
    <path id="Path_36602" data-name="Path 36602" d="M59.1,37.258A29.993,29.993,0,1,1,37.254.9,30,30,0,0,1,59.1,37.258h0Z" transform="translate(0 -0.001)" fill="#f7931a"/>
    <path id="Path_36603" data-name="Path 36603" d="M1024.1,728.024c.6-3.992-2.443-6.138-6.6-7.57l1.349-5.408-3.292-.82-1.313,5.266c-.865-.216-1.754-.419-2.638-.621l1.322-5.3-3.29-.82-1.349,5.406c-.716-.163-1.42-.324-2.1-.494l0-.017-4.54-1.134-.876,3.516s2.443.56,2.391.594a1.752,1.752,0,0,1,1.534,1.915l-1.536,6.161a2.638,2.638,0,0,1,.342.11l-.348-.086-2.153,8.631a1.2,1.2,0,0,1-1.509.782c.033.048-2.393-.6-2.393-.6l-1.635,3.768,4.285,1.068c.8.2,1.578.409,2.347.606l-1.362,5.47,3.289.82,1.349-5.412c.9.244,1.77.469,2.624.681l-1.345,5.386,3.292.82,1.362-5.46c5.614,1.062,9.836.634,11.612-4.443,1.432-4.088-.071-6.446-3.025-7.983,2.151-.5,3.772-1.911,4.2-4.833h0Zm-7.522,10.547c-1.017,4.088-7.9,1.878-10.133,1.324l1.808-7.247c2.232.557,9.388,1.66,8.325,5.923Zm1.018-10.606c-.928,3.718-6.658,1.829-8.516,1.366l1.639-6.573c1.859.463,7.844,1.328,6.877,5.206Z" transform="translate(-980.871 -702.298)" fill="#fff"/>
  </g>
</svg>
