<svg id="COCOA" xmlns="http://www.w3.org/2000/svg" xmlns:xlink="http://www.w3.org/1999/xlink" width="70" height="70" viewBox="0 0 70 70">
  <defs>
    <clipPath id="clip-path">
      <rect id="Rectangle_19494" data-name="Rectangle 19494" width="34.493" height="50" transform="translate(0 0)" fill="none"/>
    </clipPath>
  </defs>
  <rect id="Rectangle_13501" data-name="Rectangle 13501" width="70" height="70" fill="rgba(11,239,160,0.47)" opacity="0"/>
  <g id="Group_30152" data-name="Group 30152" transform="translate(17.754 9.997)">
    <g id="Group_30152-2" data-name="Group 30152" transform="translate(0 0.003)" clip-path="url(#clip-path)">
      <path id="Path_47566" data-name="Path 47566" d="M599.988,137.514l-1.022.316a30.255,30.255,0,0,0-3.662-5.269,25.354,25.354,0,0,1-1.125,3.169l-.64-.216a37.742,37.742,0,0,0,1.782-4.839,50.842,50.842,0,0,1,4.667,6.839" transform="translate(-569.405 -125.362)" fill="#2b1115"/>
      <path id="Path_47567" data-name="Path 47567" d="M14.626,219.446c2.172-1.71,4.732-2.744,7.76-.676a7.235,7.235,0,0,0,2.113.9c3.01.9,3.217,2.993,3.995,5.906a25.618,25.618,0,0,1,.868,5.276c-.548-1.457-1.4-3.1-1.633-3.959a11.038,11.038,0,0,0-1.154-2.845,10.3,10.3,0,0,1,.374,2.048c.128,1.276.3,3.749.411,5.376.468,6.7-4.026,12.542-8.324,16.957a12.906,12.906,0,0,1-3.722,2.53c4.848-4.322,9.7-11.162,9.391-18.377-.154-3.616,1.857-6.81.118-9.252.651,2.9-1.22,5.785-1.177,9.434.1,8.475-7.022,16.544-12.724,20.083,3.287-4.586,8.149-12.762,10.2-21.417.839-3.537,3.048-8.148,1.765-10.344.29,2.355-1.857,6.627-2.779,9.964-2.684,9.713-8.307,19.316-11.934,23.192-.182.129-1.058.091-1.076-.122.183-4.947,3.6-16.041,9.363-24.931,1.884-2.9,2.735-5.276,3.963-7.45-2.15,2.008-2.717,3.8-4.805,6.779-6.13,8.729-9.062,20.023-9.8,24.666-2.25-5.579-1.435-19.693,6.508-26.109,2.839-2.293,4.707-6.43,8.251-7.345-3.759-.491-5.9,4.227-8.787,6.413-6.735,5.1-8.545,15.278-8.092,22.028-.144-.674-.27-1.313-.408-1.858a18.208,18.208,0,0,1-.255-6.439q.073-.622.176-1.249c-.192.909-.342,1.817-.448,2.719a19.2,19.2,0,0,0,.269,6.79c.563,2.236.631,5.833,2.568,7.482a3.061,3.061,0,0,0,1.84.756c2.437.228,5.558-2.052,7.551-2.977a19.2,19.2,0,0,0,5.444-4.068,51.174,51.174,0,0,0,6.138-7.273,34.781,34.781,0,0,1-6.424,9.236,21.5,21.5,0,0,1-6.093,4.554c-2.591,1.2-6.621,3.873-9.527,2.58h0l-.016-.008-.017-.007h0c-2.834-1.443-3.3-6.255-4-9.025a21.5,21.5,0,0,1-.3-7.6c.852-7.223,3.671-13.685,9.635-18.15,1.35-1.011,3.608-3.255,4.8-4.191" transform="translate(0 -208.773)" fill="#2b1115"/>
      <path id="Path_47568" data-name="Path 47568" d="M455.776.129c2.592.983,12.219,7.617,13.742,9.289.927,1.019-.429,1.591-1.485.712a35.684,35.684,0,0,0-3.576-2.338,14.864,14.864,0,0,1,2.122,4.272l-.488.067a26.924,26.924,0,0,0-4.443-7.36q.408.251.819.509c2.657,1.662,5.322,3.533,6.135,4.163.679.526.883.258.419-.168A120.367,120.367,0,0,0,456.358.809c-.307-.144-.529-.237-.693-.3a.391.391,0,0,0-.246.74c.172.084.412.212.685.339.723.335,2.521,1.349,4.571,2.588l-.011.031a59.3,59.3,0,0,1-1.419,5.884L457.9,9.465a28.146,28.146,0,0,0,1.22-5.6V3.855c-.017.011-.034.023-.053.037a6.351,6.351,0,0,0-.542.543,42.406,42.406,0,0,0-4.058-1.992,1.11,1.11,0,0,1-.5-1.671,1.334,1.334,0,0,1,1.809-.642" transform="translate(-435.334 -0.003)" fill="#2b1115"/>
    </g>
  </g>
</svg>
