<svg id="COFFEE" xmlns="http://www.w3.org/2000/svg" xmlns:xlink="http://www.w3.org/1999/xlink" width="70" height="70" viewBox="0 0 70 70">
  <defs>
    <clipPath id="clip-path">
      <rect id="Rectangle_19492" data-name="Rectangle 19492" width="50" height="44.371" fill="none"/>
    </clipPath>
  </defs>
  <rect id="Rectangle_13501" data-name="Rectangle 13501" width="70" height="70" fill="rgba(11,239,160,0.47)" opacity="0"/>
  <g id="Group_30150" data-name="Group 30150" transform="translate(-515 -1882.186)">
    <g id="Group_30149" data-name="Group 30149" transform="translate(525 1895)">
      <g id="Group_30148" data-name="Group 30148" clip-path="url(#clip-path)">
        <path id="Path_47554" data-name="Path 47554" d="M21.854,151.156c-1.268.058-2.311.153-3.353.144a9.616,9.616,0,0,0-7.446,3.3c-.777.844-1.538,1.712-2.382,2.486a8.075,8.075,0,0,1-7.315,1.88,1.648,1.648,0,0,1-.984-.95,5.688,5.688,0,0,1,1.005-5.7c3.225-4.259,10.769-6.793,15.917-5.339a6.191,6.191,0,0,1,4.558,4.18" transform="translate(0 -119.997)" fill="#603813"/>
        <path id="Path_47555" data-name="Path 47555" d="M95.113.083c-.523,1.09-.9,2.018-1.4,2.882a9.98,9.98,0,0,0-.409,9.279,8.922,8.922,0,0,1-.854,9.274,1.58,1.58,0,0,1-1.86.719,6.1,6.1,0,0,1-4.74-4.866A16.638,16.638,0,0,1,88.538,2.96,6.441,6.441,0,0,1,95.113.083" transform="translate(-69.801 0.001)" fill="#603813"/>
        <path id="Path_47556" data-name="Path 47556" d="M177.355,122.727a20.342,20.342,0,0,1-2.065,1.312,10.423,10.423,0,0,0-5.885,7.681,16.633,16.633,0,0,1-1.188,3.653,7.8,7.8,0,0,1-4.9,3.963,1.793,1.793,0,0,1-1.438-.357,5.329,5.329,0,0,1-1.78-5.609,16.144,16.144,0,0,1,11.266-12.12,5.72,5.72,0,0,1,5.987,1.477" transform="translate(-130.93 -99.021)" fill="#603813"/>
        <path id="Path_47557" data-name="Path 47557" d="M132.541,23.624c.514-.972.882-1.706,1.284-2.421a6.883,6.883,0,0,0,.367-6.864c-2.243-4.241-1.355-8.136.827-12.041.521-.933,1.021-.985,1.855-.606a6.755,6.755,0,0,1,3.665,4.1,14.811,14.811,0,0,1-2.864,15.2,7.145,7.145,0,0,1-5.133,2.634" transform="translate(-108.516 -1.204)" fill="#603813"/>
        <path id="Path_47558" data-name="Path 47558" d="M182.941,154.367c1.022-.461,1.731-.757,2.42-1.1a7.361,7.361,0,0,0,4.355-6.25c.431-4.785,3.625-7.306,7.509-9.243a1.487,1.487,0,0,1,1.292.5,6.943,6.943,0,0,1,.8,6.576A14.946,14.946,0,0,1,189,155.071a7.437,7.437,0,0,1-6.057-.7" transform="translate(-149.781 -112.774)" fill="#603813"/>
        <path id="Path_47559" data-name="Path 47559" d="M9.275,188.437c1.191.008,2.148.03,3.1.017a6.874,6.874,0,0,0,5.974-3.131c2.688-4.107,6.717-4.959,11.182-4.791.347.013.9.6.967.989a6.523,6.523,0,0,1-1.5,5.137,15.077,15.077,0,0,1-15.37,4.989,6.926,6.926,0,0,1-4.354-3.21" transform="translate(-7.594 -147.793)" fill="#603813"/>
      </g>
    </g>
  </g>
</svg>
