<svg id="CORN" xmlns="http://www.w3.org/2000/svg" xmlns:xlink="http://www.w3.org/1999/xlink" width="70" height="70" viewBox="0 0 70 70">
  <defs>
    <clipPath id="clip-path">
      <rect id="Rectangle_19495" data-name="Rectangle 19495" width="36.78" height="55" transform="translate(0 0)" fill="none"/>
    </clipPath>
  </defs>
  <g id="Group_30164" data-name="Group 30164" transform="translate(-718 -1885)">
    <rect id="Rectangle_13501" data-name="Rectangle 13501" width="70" height="70" transform="translate(718 1885)" fill="rgba(11,239,160,0.47)" opacity="0"/>
    <g id="Group_30155" data-name="Group 30155" transform="translate(734.61 1892.501)">
      <g id="Group_30155-2" data-name="Group 30155" transform="translate(0 -0.001)" clip-path="url(#clip-path)">
        <path id="Path_47569" data-name="Path 47569" d="M0,679.916q20.837-1.363,35.637,28.628a21.43,21.43,0,0,1,.917,2.323,2.226,2.226,0,0,1-2.094.759,2.068,2.068,0,0,0-.577-1.659c-5.294,1.857-12.019-5.041-15.488-12.153-3.9-8-7.807-9.909-18.4-17.9" transform="translate(0 -656.683)" fill="#5e8517" fill-rule="evenodd"/>
        <path id="Path_47570" data-name="Path 47570" d="M769.261,546.033q.083-2.359-4.931-13.251-.972-8.107,2.513-10.446c-6.456,8.747,10.075,17.874,7.791,33.188a92.209,92.209,0,0,0-5.373-9.49" transform="translate(-738.072 -504.531)" fill="#5e8517" fill-rule="evenodd"/>
        <path id="Path_47571" data-name="Path 47571" d="M692.239,522.335q-3.746,1.482-3.177,9.19l-2.181-4.093q1.683-4.338,5.358-5.1" transform="translate(-663.468 -504.531)" fill="#5e8517" fill-rule="evenodd"/>
        <path id="Path_47572" data-name="Path 47572" d="M61.242,8.748c.419-.158.83-.324,1.233-.521-.45-.672-.909-1.335-1.375-2,.537.624,1.059,1.256,1.565,1.912A14.051,14.051,0,0,0,64.419,7.1c-.743-1.106-1.438-2.078-2.047-2.884a47.171,47.171,0,0,1,3.682,4.733c.079-.055.158-.119.229-.174-.071.063-.142.134-.213.2.45.64.917,1.32,1.383,2.023.055-.047.111-.087.166-.134-.047.055-.1.1-.15.15,2.9,4.362,6.1,9.79,8.739,14.808l.213-.166c-.063.063-.134.126-.2.19.379.719.751,1.43,1.1,2.126.237-.166.466-.34.687-.514-.213.205-.427.4-.648.585,1.288,2.537,2.386,4.907,3.184,6.89A65.554,65.554,0,0,1,85.4,41.5C81.25,29.964,67.43,2.3,59.141.071c-3.856-.727-3.453,4.109-1.9,9.514A14.237,14.237,0,0,0,59.33,9.3c-.253-1.241-.45-2.481-.6-3.722.269,1.225.561,2.442.893,3.659.482-.119.964-.261,1.438-.427-.213-.735-.411-1.478-.593-2.22.245.727.506,1.438.774,2.157M75.205,29.514a44.405,44.405,0,0,1,3.967,3.848c-.687-1.493-1.486-3.145-2.371-4.875a12.182,12.182,0,0,1-1.6,1.027m-1.991-1.588c.593.443,1.177.9,1.754,1.383a14.124,14.124,0,0,0,1.77-.948c-.348-.672-.7-1.351-1.059-2.039a12.806,12.806,0,0,1-2.465,1.6m-2.173-1.493c.277.174.545.348.814.529-.095-.261-.19-.529-.284-.79-.174.087-.348.182-.529.261m-9.4-5.357c.356.782.64,1.351.79,1.651.095.016.19.04.284.063.411-.008.822-.04,1.225-.087-.292-.6-.569-1.193-.838-1.794a11.335,11.335,0,0,1-1.462.166m-.956-2.149c.261.616.514,1.185.743,1.683a13.48,13.48,0,0,0,1.486-.134c-.261-.577-.506-1.162-.743-1.746a11.761,11.761,0,0,1-1.486.2m.7-2.26a11.751,11.751,0,0,1-1.58.15c.229.577.458,1.122.68,1.644A14.1,14.1,0,0,0,62,18.3q-.32-.818-.616-1.636m3.105,1c-.261-.537-.514-1.067-.751-1.6a12.622,12.622,0,0,1-1.754.5c.205.545.419,1.09.632,1.628a15.693,15.693,0,0,0,1.873-.522m1.1,2.165c-.324-.616-.64-1.225-.94-1.841a13.893,13.893,0,0,1-1.865.608q.367.889.759,1.778a15.011,15.011,0,0,0,2.047-.545m1.248,2.213c-.371-.624-.727-1.256-1.075-1.9a12.237,12.237,0,0,1-2.039.648c.277.608.553,1.217.846,1.817a14.216,14.216,0,0,0,2.268-.569m.19.324a12.5,12.5,0,0,1-2.252.672c.071.15.142.3.213.443A29.5,29.5,0,0,1,68,24.733c.142-.04.284-.079.419-.126-.482-.743-.948-1.493-1.391-2.244m2.236,2.331c.229.363.466.727.7,1.09.253.142.49.284.735.435.261-.1.514-.205.767-.324-.245-.648-.5-1.3-.751-1.944a13.267,13.267,0,0,1-1.454.743m-1.6-2.608c.458.774.924,1.541,1.414,2.307a16.666,16.666,0,0,0,1.549-.672c-.363-.909-.743-1.8-1.138-2.687a12,12,0,0,1-1.825,1.051m-1.272-2.22c.363.648.727,1.3,1.106,1.936a14.833,14.833,0,0,0,1.92-.932c-.332-.743-.664-1.47-1.011-2.2a12.992,12.992,0,0,1-2.015,1.193m-1.146-2.149c.324.624.656,1.248,1,1.865a14.451,14.451,0,0,0,2.094-1.059c-.332-.687-.672-1.375-1.019-2.054a13.221,13.221,0,0,1-2.07,1.249m-.94-1.881c.261.529.522,1.067.79,1.588a14.079,14.079,0,0,0,2.149-1.09c-.284-.545-.569-1.083-.853-1.62A12.643,12.643,0,0,1,64.3,15.836m2.5-1.6a14.608,14.608,0,0,0,1.414-.988,14.014,14.014,0,0,1-1.335,1.13c.308.522.608,1.059.9,1.6.277-.19.553-.4.814-.608-.245.245-.506.474-.766.687.371.687.735,1.383,1.083,2.094.292-.2.585-.419.869-.64-.269.261-.545.506-.822.735.356.743.711,1.493,1.051,2.26.379-.253.759-.522,1.114-.814a13.249,13.249,0,0,1-1.067.932c.4.909.79,1.833,1.154,2.781a14.685,14.685,0,0,0,1.873-1.264,12.624,12.624,0,0,1-1.8,1.454c.261.664.514,1.343.751,2.031a14.1,14.1,0,0,0,2.426-1.565,12.478,12.478,0,0,1-2.339,1.8c.19.545.371,1.106.553,1.659.087.063.166.126.253.182a14.373,14.373,0,0,0,2.718-1.47c-2.623-4.994-5.729-10.438-8.51-14.919a11.952,11.952,0,0,1-1.446,1.09q.569.9,1.114,1.825m-2.655,1.28a14.476,14.476,0,0,0,2.141-.972c-.34-.624-.687-1.241-1.043-1.857a12.968,12.968,0,0,1-1.975.948c.284.632.577,1.256.877,1.881m-2.315.616a13.506,13.506,0,0,0,1.754-.427c-.277-.632-.545-1.264-.8-1.9a12.835,12.835,0,0,1-1.644.419c.221.64.45,1.272.687,1.9M58.88,14.445c.237.648.482,1.288.727,1.9a13.836,13.836,0,0,0,1.62-.119c-.221-.632-.427-1.272-.624-1.9a13.917,13.917,0,0,1-1.723.126m1.09-2.339a13.14,13.14,0,0,1-1.849.229c.19.545.379,1.09.577,1.628a13.228,13.228,0,0,0,1.77-.1c-.182-.585-.34-1.169-.5-1.754m1.968-.569A12.919,12.919,0,0,1,60.421,12c.182.6.371,1.193.577,1.786a12.855,12.855,0,0,0,1.636-.363c-.245-.624-.482-1.256-.7-1.889m2.031-.98a13.249,13.249,0,0,1-1.675.838c.269.632.537,1.264.814,1.889a14.273,14.273,0,0,0,2.007-.822c-.371-.64-.759-1.28-1.146-1.9m.332-.213c.435.616.853,1.249,1.264,1.881a13.47,13.47,0,0,0,1.533-.964c-.442-.711-.869-1.391-1.3-2.047a11.477,11.477,0,0,1-1.5,1.13m-.126-.174a14.668,14.668,0,0,0,1.6-1.011c-.458-.719-.909-1.407-1.335-2.039a12.5,12.5,0,0,1-1.651,1.169c.474.616.94,1.241,1.391,1.881m-2.015.893a14.253,14.253,0,0,0,1.675-.719c-.4-.656-.822-1.3-1.241-1.936-.4.229-.814.435-1.241.624.261.68.529,1.359.806,2.031m-1.865.522q.77-.166,1.517-.4-.356-1.031-.664-2.062a13.181,13.181,0,0,1-1.422.5c.182.656.363,1.312.569,1.968m-2.908-1.541c.174.608.371,1.217.577,1.817a13.773,13.773,0,0,0,1.9-.2q-.249-.984-.45-1.968a11.776,11.776,0,0,1-2.023.348" transform="translate(-54.21 0.001)" fill="#eaab28" fill-rule="evenodd"/>
      </g>
    </g>
  </g>
</svg>
