<svg xmlns="http://www.w3.org/2000/svg" width="70" height="70" viewBox="0 0 70 70"><defs><style>.a{fill:rgba(11,239,160,0.47);opacity:0;}.b{fill:#988430;}.c{fill:#7a6a2a;}.d{fill:#ba9f33;}.e{fill:#cfb66c;}.aa,.ab,.ac,.ad,.ae,.af,.ag,.ah,.ai,.aj,.ak,.al,.am,.an,.ao,.ap,.aq,.ar,.as,.at,.au,.av,.aw,.ax,.ay,.az,.ba,.bb,.bc,.bd,.be,.bf,.bg,.bh,.bi,.bj,.bk,.bl,.bm,.bn,.bo,.bp,.bq,.br,.bs,.bt,.bu,.bv,.bw,.bx,.by,.bz,.ca,.cb,.cc,.cd,.ce,.cf,.cg,.ch,.ci,.cj,.ck,.cl,.cm,.cn,.co,.cq,.cr,.cs,.ct,.cu,.e,.f,.g,.h,.i,.j,.k,.l,.m,.n,.o,.p,.q,.r,.s,.t,.u,.v,.w,.x,.y,.z{fill-rule:evenodd;}.f{fill:#e2cc85;}.g{fill:#f1d789;}.h{fill:#f4ecb4;}.i{fill:#f3e19d;}.j{fill:#f2e8b0;}.k{fill:#f5eec0;}.l{fill:#e6db9d;}.m{fill:#e5cb7a;}.n{fill:#d8c173;}.o{fill:#e0cd81;}.p{fill:#dfc57c;}.q{fill:#e5cc7c;}.r{fill:#d2c281;}.s{fill:#e2c270;}.t{fill:#ccb360;}.u{fill:#d5b457;}.v{fill:#d2b257;}.w{fill:#d2b159;}.x{fill:#c2a44d;}.y{fill:#caa13e;}.z{fill:#b59544;}.aa{fill:#c89d3a;}.ab{fill:#ceb052;}.ac{fill:#cca847;}.ad{fill:#c39d3c;}.ae{fill:#d2ba6b;}.af{fill:#c0993a;}.ag{fill:#a88f33;}.ah{fill:#e3c571;}.ai{fill:#d8b65b;}.aj{fill:#d3ae4d;}.ak{fill:#f4efc8;}.al{fill:#ebcc73;}.am{fill:#e5c66b;}.an{fill:#e6bd62;}.ao{fill:#b6933f;}.ap{fill:#c49937;}.aq{fill:#dfc068;}.ar{fill:#c99e3d;}.as{fill:#b58634;}.at{fill:#e6c367;}.au{fill:#dcba5a;}.av{fill:#e9ce77;}.aw{fill:#cdae50;}.ax{fill:#d2a83e;}.ay{fill:#c29637;}.az{fill:#ac8132;}.ba{fill:#a67a2e;}.bb{fill:#8c6228;}.bc{fill:#cba94c;}.bd{fill:#be9c44;}.be{fill:#a17c34;}.bf{fill:#92723a;}.bg{fill:#b18e3e;}.bh{fill:#543e26;}.bi{fill:#806031;}.bj{fill:#b6903c;}.bk{fill:#685026;}.bl{fill:#d4b968;}.bm{fill:#cca849;}.bn{fill:#585136;}.bo{fill:#252211;}.bp{fill:#c3b378;}.bq{fill:#e6d89c;}.br{fill:#6f674d;}.bs{fill:#ac924c;}.bt{fill:#9f8e57;}.bu{fill:#eac970;}.bv{fill:#d7bc6b;}.bw{fill:#453a25;}.bx{fill:#84754b;}.by{fill:#f7f7e7;}.bz{fill:#f8f6de;}.ca{fill:#d4c38b;}.cb{fill:#e2d59d;}.cc{fill:#cbac5a;}.cd{fill:#d6bc6f;}.ce{fill:#dfc677;}.cf{fill:#c4a859;}.cg{fill:#927d49;}.ch{fill:#6e6342;}.ci{fill:#39331f;}.cj{fill:#292311;}.ck{fill:#3f3824;}.cl{fill:#2d2815;}.cm{fill:#82764f;}.cn{fill:#2d2816;}.co{fill:#574f35;}.cp{fill:none;}.cq{fill:#dec270;}.cr{fill:#cbaf59;}.cs{fill:#e3c677;}.ct{fill:#ecd592;}.cu{fill:rgba(255,255,255,0.8);}</style></defs><rect class="a" width="70" height="70"/><g transform="translate(5 5)"><circle class="b" cx="30" cy="30" r="30"/><circle class="c" cx="29.039" cy="29.039" r="29.039" transform="translate(0.961 0.961)"/><circle class="d" cx="28.427" cy="28.427" r="28.427" transform="translate(1.573 1.573)"/><path class="e" d="M140.863,722.856c-.17-.155-.349-.311-.515-.466s-.335-.311-.5-.466l-.5-.48c-.083-.083-.17-.155-.253-.238s-.18-.155-.262-.228c-.67-.636-1.344-1.272-2-1.908.684.626,1.355,1.248,2.039,1.884l.238.238c.083.082.17.155.252.238l.5.466c.17.155.335.311.5.48s.335.325.5.48Zm-8.893-.1s2.437.252,3.626.422c1.1.156,4.548.684,4.548.684Zm0,0c.684.058,1.369.131,2.053.2.349.034.684.073,1.02.107l.514.059.5.073,2.039.325,1.019.17c.335.058.67.122,1.02.18-.335-.034-.684-.083-1.02-.131L138.1,723.6l-2.039-.3c-.17-.024-.335-.059-.5-.083l-.515-.059c-.335-.034-.684-.083-1.02-.122-.684-.082-1.369-.17-2.053-.276ZM139.9,724.5s-2.6.66-3.481.913-3.481,1.034-3.481,1.034L139.9,724.5Z" transform="translate(-127.747 -696.06)"/><path class="e" d="M169.871,888.8c-.578.17-1.152.335-1.738.49l-1.738.466c-.578.17-1.152.335-1.728.505l-.864.238c-.286.083-.578.155-.874.238.286-.1.578-.194.864-.277l.864-.276c.578-.18,1.152-.35,1.728-.529.587-.146,1.165-.3,1.752-.442.558-.141,1.146-.281,1.733-.412h0Zm-6.6,3.549c.286-.107,3.587-1.645,4.354-2,.384-.18,1.5-.576,1.5-.576Z" transform="translate(-157.716 -860.358)"/><path class="e" d="M173.69,922.463c.252-.1.49-.214.733-.325l.718-.335,1.442-.694c.48-.228.947-.48,1.442-.694.252-.106.5-.194.757-.276l.384-.121c.131-.034.252-.073.384-.107-.48.228-.985.422-1.466.646-.48.238-.971.432-1.466.646l-1.466.645c-.492.2-.972.413-1.462.617h0Zm.32,1.344s2.99-1.752,4.019-2.316c.539-.3,2.282-1.165,2.282-1.165Z" transform="translate(-168.132 -890.473)"/><path class="e" d="M183.71,936.14c.5-.311,1.019-.626,1.534-.947l.768-.466c.262-.155.515-.3.782-.456s.515-.311.781-.456a2.8,2.8,0,0,1,.4-.2l.408-.2c.539-.262,1.078-.529,1.646-.757-.515.325-1.044.6-1.573.888-.262.146-.529.277-.791.422s-.515.3-.782.442-.515.3-.781.442l-.791.432-1.6.864h0Zm6.276-3.1s-1.859,1.427-2.461,1.883-2.374,1.738-2.374,1.738Z" transform="translate(-177.831 -902.805)"/><path class="f" d="M684.511,707.1l-.951-1.8.553-2.253,3.947-1.524-1.68-3.446.83-3.481,1.558-3.117,4.816-.757,3.539-3.374,7.641.578,1.5,8.17-2.888,10.286-1.645,5.325-6.67.253-3.1-2.146-3.626-1.515Z" transform="translate(-661.686 -665.355)"/><path class="g" d="M415,1091.63a5.633,5.633,0,0,1-2.5.325c-.455-.611-3.645-.9-3.645-.9a1.782,1.782,0,0,0-1.1.17,12.281,12.281,0,0,1-2,.408c-.626.155-1.248-.66-1.728-.83a6.744,6.744,0,0,1-1.117-.612l-1.344-.131-2.7-1.141-4.288-4.272-1.165,1.824-.359,2.257,1.3,2.675,3.49,3.18,6.806,1.728,4.034-1.188,5.053-2.136L415,1091.63Z" transform="translate(-380.472 -1049.941)"/><path class="h" d="M304.772,692.383l.864-2.616,1.029-1.69,3.315-.277-1,2.9-2.771,4.932,1.15,4.4-2.039,1.019-.627-.961-.5-2.2-.034-2.476Z" transform="translate(-294.427 -665.79)"/><path class="i" d="M313.32,861.783l-.636-.888a1.458,1.458,0,0,1-.073-.791c.1-.374.082-.4.034-.539s-.456-.626-.432-1.044-.034-.563.276-.9a1.127,1.127,0,0,0,.228-.888l.422.262.1-.146a.432.432,0,0,1,.155.311c.034-.262-.107-1.476.214-1.752s.888,1.3.888,1.3l-.349-2.281-.9-2.339-1.6-2.136-.1-2.355v-.2a7.924,7.924,0,0,0-.937,2.016c-.146.612.2,1.354.131,2.233s-.131.806.082,1.152.733,1.058.529,1.573c-.18.442-.791.131-.791.131a1.328,1.328,0,0,1-.286.49,1.086,1.086,0,0,0-.238-.48c-.01.083-.034.194-.034.194s-.107-.335-.214-.757c-.145-.563-.3-1.306-.442-1.7-.058.228-.2.922-.2.922l.083,1.068.4,1.466.384.96.374,1.175.325.789.262.6.228,1.354,1.1,1.165.588.262.427-.219h0Z" transform="translate(-299.257 -820.273)"/><path class="j" d="M300.323,717.765a9.229,9.229,0,0,0-1.019,2.7,17.849,17.849,0,0,0-.288,4.631,19.18,19.18,0,0,0,.646,3.816,21.264,21.264,0,0,0,1.379,3.238l.034-.073a5.118,5.118,0,0,1-.4-1c-.131-.515-.18-1.126-.3-1.4a6.7,6.7,0,0,1-.374-.854,3.649,3.649,0,0,0-.349-1.223,2.48,2.48,0,0,1-.277-.971c-.049-.612.024-1.3-.034-1.859a7.477,7.477,0,0,1-.083-2.063c.1-.491.6-1.883.913-2.99.2-.709.082-1.306.456-1.923a5.428,5.428,0,0,0,.684-1.524c.1-.34-.99,1.5-.99,1.5h0Z" transform="translate(-289.401 -693.309)"/><path class="k" d="M377.548,747.42a1.587,1.587,0,0,0-.6.335,8.778,8.778,0,0,0-.539.718,5.637,5.637,0,0,0-.491,1.058c-.213.422-.684,1.058-.743,1.286s-.155,1.3-.276,1.8a2.424,2.424,0,0,0,.121,1.126l.276-.059a.872.872,0,0,0,.277.6c.276.238.325-.806.325-.806l1.034-3.49,1.558-1.058.17-.854-1.112-.66h0Z" transform="translate(-362.874 -723.503)"/><path class="l" d="M397.925,784.228a2.61,2.61,0,0,0-1.092.311c-.146.106-.2.194-.359.325a2.373,2.373,0,0,0-.718.768,5.1,5.1,0,0,0-.442,1.67c-.049.374-.049.718-.083,1.02a4.244,4.244,0,0,0-.083.96c.049.466.529.709.576,1.238l1-.5.937-3.694,1.99-1.248-1.126-1.262-.6.416h0Z" transform="translate(-382.493 -758.728)"/><path class="m" d="M318.17,1218.967l.012-.11c.145-1.248.17-2.194.276-2.786a7.321,7.321,0,0,0,.238-1.466,6.6,6.6,0,0,1-.024-1.262c.073-.515.578-1.126.563-1.548a1.312,1.312,0,0,0-.325-.757c-.146-.2-.262-.374-.262-.374s1-.685.986-3.442a.265.265,0,0,1,.058.024l.49,1.393.335.408,1.286,2.4,1.655,1.607,2.446,1.646,1.534,1.669.155,4.452-2,2.6-.328.595a28.518,28.518,0,0,1-7.092-5.047Z" transform="translate(-307.989 -1168.589)"/><path class="n" d="M509.56,1316.317a1.371,1.371,0,0,1,.49-.913.545.545,0,0,1,.107.325,2.894,2.894,0,0,1,1.966-1.32,2.02,2.02,0,0,0,1.622-1.189l2.771-2.519,3.17-2.917,3.854-1.355,1.8-.442a1,1,0,0,1-.034.422,8.771,8.771,0,0,0,1.849-.466c.311-.121.6-.17.757-.01a1.664,1.664,0,0,1,.276,1.019c.374-.083.806-.442,1.152-.408.554.058,1.044.709,1.607.709.743,0,1.078-.456,1.6-.816.311-.213.757-.48,1.01-.66.6-.442,6.971-2.389,6.971-2.389l2.233.146.359,2.4-.192,6.269-.071.069-10.153,5.3-14.074,2.157a28.229,28.229,0,0,1-9-3.095l-.072-.32h0Z" transform="translate(-493.254 -1261.681)"/><path class="g" d="M344.85,1572.193c.2-.418.38-.768.411-.893.025.252.071.805.163,1.394q-.29-.247-.574-.5Z" transform="translate(-333.815 -1521.018)"/><path class="o" d="M666.052,1434.823l1.82-.506.155.049s.083.049.083.214c.228-.131.422-.107.563-.194.073.155.145.67.466.733a1.426,1.426,0,0,0,1.058-.422,7.078,7.078,0,0,1,1.077-.792,5.8,5.8,0,0,1,.3.646c.408-.325,1.116-1.645,2.126-1.621a3.831,3.831,0,0,1,1.4-1.694,3.051,3.051,0,0,1,2.257-.626,3.86,3.86,0,0,1,1.058-.947.975.975,0,0,0,.874.058c.422-.194.9-.947,1.524-1.044a1.472,1.472,0,0,1,.971.2,15.845,15.845,0,0,1,3.083-2.413c-.049-.146-.146-.694,1.33-1.908.082.073.024.277.082.288a3.428,3.428,0,0,0,.84-.505,6.827,6.827,0,0,1,1.646-.985,2.3,2.3,0,0,1,1.583.238.727.727,0,0,1,.228-.107,3.008,3.008,0,0,0,.442-.1,3.068,3.068,0,0,1,0,1.058,2.345,2.345,0,0,0,.48.2,2.169,2.169,0,0,1-.563.854c.252.121.286.262.646.384a7.125,7.125,0,0,0-.49.768c-.107.228-.491,1.175-.661,1.534s-.422,1.02-.539,1.152a9.239,9.239,0,0,1-.864.97c.288-.107,1.466-.466,1.966-.6-.149.218-.9,1.337-1.628,2.414a28.484,28.484,0,0,1-23.318,2.7Z" transform="translate(-644.737 -1377.749)"/><path class="p" d="M470.461,704.992a1.753,1.753,0,0,0-.5.058c-.083.058.422.18.578.238a1.326,1.326,0,0,1,.578.539,24.636,24.636,0,0,0,3.034,1.393l2.087-.107.72-.994-1.369-1.2.96-2.83-1.272.2-3.058,1.824-1.534.588-.219.287Z" transform="translate(-454.909 -679.623)"/><path class="q" d="M629.056,793.417a.327.327,0,0,0,.288.155,1.292,1.292,0,0,1,.995.325c.277.35,1.044,1.466,1.044,1.466l1.835.66.118-2.161-2-1.393-2.282.84v.107h.005Z" transform="translate(-608.92 -767.111)"/><path class="r" d="M584.585,831.358a2,2,0,0,0,.757-.131c.422-.156,1.116-.49,1.418-.359.422.18.335.743.791,1.248.276.311.781.3,1.068.636s1.272.18,1.272.18l.374,2.016-1.5,1.922-.491,2.388h-2.028l-1.853-.735-.913-2.208.456-2.233.648-2.724Z" transform="translate(-564.809 -804.251)"/><path class="s" d="M738.993,761.916a.551.551,0,0,0,.155.024.4.4,0,0,0-.131.432c.049.277.2.626.073.84a1.05,1.05,0,0,1,.228.4c.083.238.107.456.645.491a1.136,1.136,0,0,0-.214.17,3.548,3.548,0,0,1,.563.626,4.631,4.631,0,0,0,.708-.168l.107.073.228-.1s-.213-.083-.058-.6c.146-.456.277-.432.288-.466a4.776,4.776,0,0,0,.107-.709,8.506,8.506,0,0,0,.131-1.019l-.155-1.694-.874-.529-.71-.686-.67,1.262-.441.44-.034,1.092.053.122Z" transform="translate(-715.294 -734.712)"/><path class="t" d="M806.28,522.719a5.935,5.935,0,0,1,.214.781.757.757,0,0,0,.034-.2s.121.67.145.947c.049-.01.1-.024.107.024a4.028,4.028,0,0,1,.1.888,2.421,2.421,0,0,1,.815-.815,1.425,1.425,0,0,1,.661-.262c.374-.01.645.238,1.092.238,1.077,0,2.054-.791,2.772-1.034a3.665,3.665,0,0,0,1.306-.6,3.418,3.418,0,0,0,.685-.854c.335-.576.684-1.077,1.034-1.141a2.167,2.167,0,0,1-.48.034s.107-.107.288-.253a1.119,1.119,0,0,1,.708-.325c.554,0,.83.082,1.141.082a1.55,1.55,0,0,0,.49-.082,1.955,1.955,0,0,0,1.058.228c.733.01,1.223.073,1.607.107s1.67-.107,2.039-.1a1.787,1.787,0,0,1,.694.17l-1.189-3.456-4.273-3.734-2.544,1.8-3.913,3.913-3.786,1.4-.791.888v1.354Z" transform="translate(-780.479 -496.932)"/><path class="u" d="M1024.328,551.879s.107-.107.286-.252a1.116,1.116,0,0,1,.709-.325c.553,0,.83.083,1.141.083a1.547,1.547,0,0,0,.49-.083,1.958,1.958,0,0,0,1.058.228c.733.01,1.223.073,1.607.107s1.67-.107,2.039-.1a1.774,1.774,0,0,1,.694.17l-.539-1.558-.626-1.189-1.787-1.956-2.16-1.272c-.01-.01-.743-.2-.743-.2l-1.942,1.175-1.762,4.558-.034.96,1.14.539c.286-.48.6-.864.9-.913-.267.029-.471.029-.471.029h0Z" transform="translate(-990.032 -528.073)"/><path class="v" d="M862.553,733.685c-.17.01-.31-.024-.349-.146-.146-.408-.262-.466-.384-.466s-.286.262-.384.286-.213-.3-.213-.3l-.107-.049a6.5,6.5,0,0,0-1.068.888,8.859,8.859,0,0,1-1.49,1.442,16.066,16.066,0,0,1-1.824.277,2.364,2.364,0,0,0-.864.422c-.058.063.17.131.2.194s-.374.034-.408.1a1.569,1.569,0,0,0,.156.466.791.791,0,0,1,.335-.083c.374-.01.646.238,1.092.238,1.078,0,2.054-.791,2.772-1.034a3.666,3.666,0,0,0,1.306-.6,3.432,3.432,0,0,0,.685-.854,6.077,6.077,0,0,1,.544-.777h0Z" transform="translate(-828.281 -709.554)"/><path class="w" d="M386.075,1248.072a4.058,4.058,0,0,0-.986-1.286c-.253-.262-.408-.48-.578-.636a7.758,7.758,0,0,0-.971-.733c-.66-.49-1.379-.49-1.932-1.092a10.055,10.055,0,0,1-1.646-2.927c-.442-1.175-.563-1.548-.563-1.583s.122-.262.277-.228.155.335.194.408a2.411,2.411,0,0,0,.262.335,3.19,3.19,0,0,1,.718,1.044,4.722,4.722,0,0,0-.17-.84s.854.539,1.582,1.1,1.034.757,1.248,1.116a17.231,17.231,0,0,0,.96,1.583,27.225,27.225,0,0,0,3.552,1.32l1.575,1.174.782,1.714-.612.96-1.175.252-1.908-.854-.611-.828h0Z" transform="translate(-367.259 -1199.916)"/><path class="x" d="M455.55,1277.9a4.447,4.447,0,0,0,1.369,1.238,13.131,13.131,0,0,0,3.491,1.3,9.769,9.769,0,0,0,2.053.311,29.547,29.547,0,0,0,4.355-.626,20.949,20.949,0,0,0,2.772-.384,14.258,14.258,0,0,0,3.107-1.152c.757-.349,1.452-.612,2.014-.947a8.566,8.566,0,0,1,2.039-1.14,1.73,1.73,0,0,1-.83,1.058c.349-.01.83-.034.83-.034a15.579,15.579,0,0,0-1.286.9c-.5.384-1.175,1.034-1.859,1.466-.442.277-.923.48-1.238.646a5.556,5.556,0,0,0-1.582,1.152.682.682,0,0,1,.194,0,3.778,3.778,0,0,0-1.092.325,1.477,1.477,0,0,0-.554.049c-.228.073-.529.238-.84.325a1.056,1.056,0,0,1-.587.073l.073.146s-.576-.01-.768.01c.034.01.024.024.024.024a.293.293,0,0,0-.1.034,1,1,0,0,1-.3.131c-.058.01-.107.01-.18.024.024.058.214.384.3.576-.073.049-1.165.874-1.165.874a.834.834,0,0,1,.083.17c.034.107.049.262.083.335.082.146.131.17.131.17s-.131.024-.359.083a6.284,6.284,0,0,1-.768.18,3.077,3.077,0,0,1-.311.024.848.848,0,0,1-.131.985c-.393.471-.515.539-.636.84a1.3,1.3,0,0,0-.194-.122.816.816,0,0,1-.374-.262,3.131,3.131,0,0,1-.146.456,5.669,5.669,0,0,0-.335.888c-.131-.146-.374-.432-.709-.374s-.6.515-.66.646c0-.083-.058-.146-.073-.049a3.689,3.689,0,0,1-1.223,2.126c-.01-.228-.01-.733-.034-.9a2.355,2.355,0,0,1-.913.539c-.684.3-.576.6-.576.6a1.505,1.505,0,0,1,.311-.986c.374-.5.6-.743.6-.781a.217.217,0,0,0-.049-.107c-.049-.049-.146-.107-.146-.146a.976.976,0,0,0,.6-.874,1.549,1.549,0,0,0-.408-.97c-.024-.024.228-.2.194-.262-.024-.034-.335-.263-.374-.384a1.114,1.114,0,0,1,.049-.213.605.605,0,0,0,.049-.252,2.018,2.018,0,0,0-.194-.49,2.655,2.655,0,0,0,.276,0,2.4,2.4,0,0,1-.228-.456,5.913,5.913,0,0,0-.146-.6c.083.01.286.024.286,0,.01-.073-.18-.194-.1-.288a.488.488,0,0,1,.276.194,1.111,1.111,0,0,0-.359-.578.881.881,0,0,1,.709.048.953.953,0,0,1,.384.408s.17.131.432.325a4.706,4.706,0,0,0,1.3.815,1.344,1.344,0,0,0,.709.024,1.093,1.093,0,0,0,.3-.121.563.563,0,0,1,.107-.049,2.331,2.331,0,0,0-.18-.3c.083,0,.18.01.18.01s.058-.131-.2-.384c.058-.058.131-.1.131-.194a.573.573,0,0,1-.262-.179c.048-.034.121-.146.2-.18-.073-.058-.252-.3-.335-.325a1.536,1.536,0,0,0,.228-.107,2.792,2.792,0,0,1-.539-.194,3.217,3.217,0,0,0-.442-.311c-.122-.049-.335-.073-.422-.17a1.328,1.328,0,0,0,.311,0c.073,0,.107.01.131.01-.01-.034-.01-.107.18-.131a.887.887,0,0,0,.262-.083.671.671,0,0,1-.384-.2,1.493,1.493,0,0,0-.49-.374c-.121-.024-.349.083-.49.073a.442.442,0,0,1-.277-.121,4.063,4.063,0,0,1-2.077-.815,7.327,7.327,0,0,1-1.777-1.427,2.14,2.14,0,0,1-.335-.156c-.466-.243-1.112-.748-1.092-1.408h0Z" transform="translate(-440.972 -1235.652)"/><path class="y" d="M1008.655,390.937a.63.63,0,0,1,.288.194.9.9,0,0,1-.146,1.286.83.83,0,0,0,.466.073,2.268,2.268,0,0,0-.612,1.068.407.407,0,0,0,.18.422,1.615,1.615,0,0,0-.325.96,3.889,3.889,0,0,1,.48-.456,12.733,12.733,0,0,1,1.189-.815.685.685,0,0,0,.034.252s.626-.515,1.152-.286c.238.107.131.442.131.442a.555.555,0,0,1,.554.107,10.35,10.35,0,0,1,.716,1.045,7.662,7.662,0,0,1,.456.626,7.923,7.923,0,0,1,.66,1.393c.01-.252.073-.645.791-.4a4.408,4.408,0,0,1,2.218,1.824c.684,1.042.854,2.219,1.2,2.667a3.8,3.8,0,0,1,.733,1.452,12.708,12.708,0,0,0,.612,3.9c.2-.815.515-2.626.515-2.626l.17-1.6.194-4.942-5.16-4.287-4.034-2.927-2.626.252.165.374h0Z" transform="translate(-976.219 -377.82)"/><path class="z" d="M1111.829,244.843s-.073-.48-1.286-1.3-2.16-.806-3.034-1.49c-.67-.539-1.369-1.777-1.824-2.185a2.973,2.973,0,0,1-.515-1.568l1.49-1.248,2.216-3.2,1.874-2.063.9,1.248,1.248,1.466.694,2.942.252,4.306-2.016,3.092Z" transform="translate(-1069.805 -224.373)"/><path class="aa" d="M1310.41,523.571a5.471,5.471,0,0,0-.238-1.932,35.586,35.586,0,0,0-1.344-3.424c-.131-.733-.034-.791.107-.874a2.145,2.145,0,0,0,.96-1.442,1.368,1.368,0,0,1,1.189-1.092l.553-.408.84,2.1.733,1.9.228,1.451.17,1.238-.4,2.617-1.966,1.777-.835-1.911h0Z" transform="translate(-1266.886 -497.939)"/><path class="ab" d="M502.89,1700.736v-.054a.416.416,0,0,0,.107-.1c.034-.049.059-.107.083-.121a.916.916,0,0,1,.4-.073,3.087,3.087,0,0,0,.612.146,4.012,4.012,0,0,1,1.4-.155c.971.18,1.2.84,1.762,1.213a1.116,1.116,0,0,0,.84.146h.131c.024,0,.2-.2.3-.194.194.01.213.17.335.179a10.925,10.925,0,0,1,1.117-.073.533.533,0,0,1,.349.349.539.539,0,0,1-.131.539,2.146,2.146,0,0,0-.645.768,2.723,2.723,0,0,1,.213.18,28.257,28.257,0,0,1-6.873-2.752Z" transform="translate(-486.798 -1645.94)"/><path class="ac" d="M1310.68,707.964a16.794,16.794,0,0,0,1.02-1.51c.262-.515-.83-7.044-.83-7.044l2.194-7.189-.059-2.34a21.531,21.531,0,0,1,.359-3.1c.3.539,1.238,1.189,1.442,1.534a17.841,17.841,0,0,0,.374-3.539,26.459,26.459,0,0,1,.612,3.058l.432,1.874.563,1.99.626,2.1.374,1.451.214.349.18.611.17.661.49,1.548.288,1.272.228,2.306a3.492,3.492,0,0,1,.107.539,2.24,2.24,0,0,1-.034.442,5.282,5.282,0,0,1,.049.937,1.32,1.32,0,0,1-.35.96,5.808,5.808,0,0,0-.49,1.922l-.539-.359a1.463,1.463,0,0,0-.145-.937.947.947,0,0,0-1.02-.466,3.08,3.08,0,0,0-1.01.3,3.157,3.157,0,0,1-2.65,1.262,4.483,4.483,0,0,0-1.379.718,7.711,7.711,0,0,1-1.214.64h0Z" transform="translate(-1268.739 -662.867)"/><path class="ad" d="M1310.68,1296.245s.032.021.094.055a28.514,28.514,0,0,0,9.088-6.736c-.028-.982-.064-1.99-.1-2.363-.082-.791-.024-1.6-.048-2.063s-.286-2.364-.408-2.854a1.242,1.242,0,0,0-.422-.733,5.85,5.85,0,0,0-.238,1.152c0,.23-.049.782-.049.922-.034-.01-.048-.1-.048-.131-.049.121-.107.335-.131.359s.034-.2,0-.252-.1-.024-.082-.146a1.4,1.4,0,0,1,.034-.213,2.224,2.224,0,0,0-.252.757c-.107.539-.107.554-.146.6s-.228.252-.238.325c-.01.131.18.262.194.335.01.122-.17.684-.228.96s-.034.815-.1,1.092c-.049.253-.1.4-.262.5.121.024.238.058.238.058a1.794,1.794,0,0,1-.262,1.33c-.155.213-.194.311-.359.5a2.231,2.231,0,0,0-.6,1.034,1.741,1.741,0,0,1-.034-.238,11.487,11.487,0,0,0-.719.923c-.276.432-.66.408-.768.515a.51.51,0,0,0-.1.456c-.1.024-.276.058-.4.432a.91.91,0,0,1-.432.515,2.294,2.294,0,0,1-.646.2.79.79,0,0,1,.228.073,3.857,3.857,0,0,1-.781.554,1.632,1.632,0,0,0-.646.781.559.559,0,0,1-.466.359c.1.058.238.194.311.238a1.08,1.08,0,0,0-.612.3c-.34.282-.456.364-.612.389h0Z" transform="translate(-1268.739 -1240.54)"/><path class="ae" d="M1099.552,1778.535a2.746,2.746,0,0,1,.6-.318,12.8,12.8,0,0,1,1.874-.456,6.827,6.827,0,0,1,.913-.3c-.01.085-.018.165-.027.24a28.236,28.236,0,0,1-3.36.834Z" transform="translate(-1064.365 -1720.581)"/><path class="af" d="M1201.188,812.516a5.971,5.971,0,0,1-.432,1.369c-.277.529-.576,1.262-.576,1.262a2.3,2.3,0,0,1,.058-.49,13.8,13.8,0,0,0-1.44.913,4.878,4.878,0,0,0-.709.733,14.68,14.68,0,0,0,.505-1.548,31.19,31.19,0,0,0-2.83,2.485l-2.646,2.141a9.125,9.125,0,0,1-.942.441c-.456.194-.995.359-1.393.515a2.207,2.207,0,0,1,.515-.782,5.722,5.722,0,0,0,1.126-1.44,1.31,1.31,0,0,0-.01-.971c-.131.034-.432.049-.636.107a1.242,1.242,0,0,0-.422.276,9.942,9.942,0,0,1,.49-1.728c-.253.01-.684.082-.684.082a6.155,6.155,0,0,1,1.632-1.713,5.314,5.314,0,0,0-.922.286c-.6.253-1.262.626-1.752.83a38.6,38.6,0,0,0,3.374-5.738c1.152-2.578,1.582-3.238,1.835-4.621a21.094,21.094,0,0,0,.131-2.6,17.466,17.466,0,0,0,.073-2.243,5.332,5.332,0,0,1,1.466,3.782,14.477,14.477,0,0,1-2.257,7.247c.288.083,1.034.18,1.8-1.152a15.714,15.714,0,0,0,1.034-2.257,2,2,0,0,1,.024.374,10.168,10.168,0,0,0,1.646-3.058,4.216,4.216,0,0,1-.073,2.724,2.694,2.694,0,0,1-1.019,1.51,2.3,2.3,0,0,0,.709-.3c.073.18.059.384.18.456s.286.194.311.311a3.549,3.549,0,0,0,.4-.626,13.248,13.248,0,0,0,.1,2.917.987.987,0,0,0,1.019-.733,3,3,0,0,0-.058,1.621,1.911,1.911,0,0,0,.379-.379h0Z" transform="translate(-1152.036 -774.477)"/><path class="ag" d="M865.3,350.788a2.861,2.861,0,0,1-1.01.155c-.553,0-.4-.213-1.262-.213-1.33,0-5.976.768-6.791.757a17.9,17.9,0,0,0,1.786.228l5.918.083,1.189-.1.442-.9Z" transform="translate(-828.765 -339.507)"/><path class="ah" d="M603.872,681.719a6.761,6.761,0,0,0-1.078,1.019,7.5,7.5,0,0,1-.854,1.092.747.747,0,0,0,.253-.034s0,.1-.058.121a.34.34,0,0,1,.276.1.494.494,0,0,0-.17.694.747.747,0,0,0,.529.286s-.083.238.262.214a19.624,19.624,0,0,1,1.956-.277,1.071,1.071,0,0,1,.874.6c.288.466.539.539.539.539a2.756,2.756,0,0,0,.131-1.078,3.2,3.2,0,0,0,.228-1.092l-.252-1.859-1.1-1.393-1.427.791-.107.276Z" transform="translate(-582.678 -658.869)"/><path class="ai" d="M704.64,482.624s.107.253.554.276a.251.251,0,0,0-.034.2c.01.083.024.2.024.2a.451.451,0,0,0,.131-.1c.024.107-.024.276,0,.4a.882.882,0,0,0,.073.213.441.441,0,0,1,.024-.048,1.911,1.911,0,0,0,.335.48.2.2,0,0,1,.024-.1.336.336,0,0,0,.058.17.175.175,0,0,1-.048-.034,5.548,5.548,0,0,0,.155,1.165.546.546,0,0,0,.058-.083c0-.024-.01.214-.034.384a1.68,1.68,0,0,0-.01.408,1.274,1.274,0,0,1,.286-.17,1.037,1.037,0,0,0,.529-.636,4.238,4.238,0,0,0,.194-.694.968.968,0,0,1,.1.288c.01.121.238.058.238.058l.049-.529.288-1.2.262-.743,1.262-1.966,2.28-1.756,1.99.456L715.105,477l-2.893-1.738-2.738.286-2.485,3.442L705,482.11l-.359.515h0Z" transform="translate(-682.092 -460.052)"/><path class="aj" d="M801.781,407.241a3.162,3.162,0,0,0-.66.288c-.49.254-.83.335-1.02.708a1.838,1.838,0,0,0-.2.67,4.643,4.643,0,0,1,.529-.194c.2-.048.432-.034.408.049a.564.564,0,0,1-.1.155s.384-.01.374.18a1,1,0,0,1-.145.49c-.073.1-.374.238-.408.35-.083.228.034.238-.01.422a2.919,2.919,0,0,1-.718,1.141,6.128,6.128,0,0,0-.768,1.044,6.658,6.658,0,0,1-.4-.913c-.1.048-.612.335-.612.335l-1.194-4.16.024-.277a.742.742,0,0,0,.131-.374c-.18-.058-.2-.107-.442-.335a2.969,2.969,0,0,0-.83-.694.528.528,0,0,0-.422-.311c-.291-.059-.466-.107-.466-.107a.508.508,0,0,0,.228-.18,3.006,3.006,0,0,1-.718.073,3.006,3.006,0,0,0-.66.01c-.218.034-.48.131-.578-.2-.107-.083-.335-.01-.529.276s-.262.515-.636.626a1.3,1.3,0,0,1-.17.466,5.356,5.356,0,0,1-.5.626c-.359.422-.3,1.116-.874,1.646s.1-1.466.1-1.466l.922-2.208,2.626-2.568,4.078-.276.4,2.112,1.99.684,1.257,1.917h0Z" transform="translate(-764.892 -389.649)"/><path class="y" d="M1014.217,407.94l-1.714-2.471-1.2-.923s-.854-1.573-.913-1.621a11.3,11.3,0,0,0-1.369-.155l.1.238a.631.631,0,0,1,.288.194.9.9,0,0,1-.146,1.286.83.83,0,0,0,.466.073,2.269,2.269,0,0,0-.612,1.068.406.406,0,0,0,.18.422,1.617,1.617,0,0,0-.325.96,3.889,3.889,0,0,1,.48-.456,12.442,12.442,0,0,1,1.189-.816.684.684,0,0,0,.034.253s.626-.515,1.152-.286c.238.107.131.442.131.442a.555.555,0,0,1,.554.107,10.279,10.279,0,0,1,.718,1.044,7.689,7.689,0,0,1,.456.626,7.916,7.916,0,0,1,.661,1.393c.01-.194.049-.466.384-.466l-.51-.913Z" transform="translate(-976.683 -389.881)"/><path class="ak" d="M368.519,624.367a1.673,1.673,0,0,1,0-.888,8.938,8.938,0,0,0,.374-1.728,6.16,6.16,0,0,1,.626-1.942l1.558-.708,1.1.3.325,1.476-1.393.768a1.069,1.069,0,0,1-.466.587c-.393.262-.937.466-1.068.733a2.137,2.137,0,0,0-.17.515.73.73,0,0,0-.636.18.932.932,0,0,0-.252.709Z" transform="translate(-356.675 -599.289)"/><path class="al" d="M341.274,500.437a.709.709,0,0,0-.228.288,5.848,5.848,0,0,1-.335-1.908c-.01-.83-.059-1.036.133-1.322s.945-.588.838-1.1a.806.806,0,0,0-1.1-.553c-.384.1-.67.913-1.068,1.32-.3.311-.66.262-.757.432-.131.228-.01.456-.049.6a2.907,2.907,0,0,1-.35.626,6.268,6.268,0,0,0-1.286,2.34,4,4,0,0,1,.131-.971l-.073-.121.48-1.573.311-1.3.694-2.17,1.223-2.218,1.189-1.33,1.238.083.146,1.859.709,3.491,1.49,1.835-2.389,1.607-.947.083h0Z" transform="translate(-326.284 -475.753)"/><path class="am" d="M462.291,705.058a.6.6,0,0,1-.277.01c-.073-.039-.145-.083-.121-.131s.155-.131.155-.17a.136.136,0,0,0-.121-.146.132.132,0,0,0-.146.058.55.55,0,0,0-.194-.1,1.319,1.319,0,0,1,.155-.01,1.513,1.513,0,0,0-.422-.121c.121-.073.359-.286.515-.286s.253-.024.228-.107a.5.5,0,0,0-.276-.252c.048-.058.083-.146-.034-.384a.461.461,0,0,1-.034-.456,3.077,3.077,0,0,1,.213-.286.783.783,0,0,1,.2-.252,2.546,2.546,0,0,1,.359-.155c.17-.058.311-.131.408-.058a.133.133,0,0,1,.058.17.876.876,0,0,1,.636.034,4.805,4.805,0,0,0,1.034.238l.263.529-1.738,1.49-.718.359-.146.024h0Z" transform="translate(-446.558 -679.714)"/><path class="an" d="M494.508,608.819a6.708,6.708,0,0,0-.66.49c.073.01.194.059.145.131a7.8,7.8,0,0,0-.6.563,3.708,3.708,0,0,0-.466.684,2.462,2.462,0,0,1-.815.563c.4,0,1.2-.49,1.5-.49a.3.3,0,0,0,.253.325,1.886,1.886,0,0,0,1.32-.3c.66-.4.442-.694.718-.888.529-.35.743-.66,1.034-.854a1.893,1.893,0,0,1,.442-.238s.01-.146.1-.131a.13.13,0,0,1,.107.083,2.978,2.978,0,0,1,1.152-.456.067.067,0,0,1-.034-.034s.048-.024.058-.049c0,0,.034-.049.058-.024s.058.2.107.277c.107-.049.311-.5.311-.5l.491-1.4V605.28l-.384.073-2.88,1.223-1.748,1.811-.2.432Z" transform="translate(-476.362 -585.911)"/><path class="ao" d="M708.267,487.65a1.63,1.63,0,0,0,.443-.18,2.007,2.007,0,0,1-.311.694,5.86,5.86,0,0,0-.466.806c-.2.4-.228.971-.422,1.223a.889.889,0,0,1,.276-.082,1.282,1.282,0,0,0-.276.349,1.659,1.659,0,0,1-.587.782,4.668,4.668,0,0,0-1.306.913c-.491.529-1,1.2-1.248,1.44a3.6,3.6,0,0,0,.359-.985c.049-.3-.01-.66.073-1.058a3.457,3.457,0,0,1,.48-1.379,23.614,23.614,0,0,0,1.078-3.107l1.466-.466.442,1.049h0Z" transform="translate(-681.83 -471.029)"/><path class="ap" d="M772.57,400.8a4.089,4.089,0,0,0-.563,1.2c-.121.563-.01.515-.083.791a1.03,1.03,0,0,0,0,.515,1.827,1.827,0,0,1,.611-.6,5.014,5.014,0,0,0,.96-.645,3.535,3.535,0,0,1,.815-.888c-.18-.024-.432-.107-.48-.1a10.868,10.868,0,0,1,1.262-.888,4.869,4.869,0,0,1,1.379-.922,5.972,5.972,0,0,1-.66,0c.1-.2.432-.3.768-.636s-.213-.83-.213-.83l-2.56,1.548-1.238,1.456Z" transform="translate(-747.191 -385.07)"/><path class="aq" d="M576,162.3l.058-.466.733-1.175.767-2.063v-2.82l-.058-1.631.121-1.068.092-.34.1-.131.626.325.864,1.175.083,2.267-.84,3.578-2.4,2.617Z" transform="translate(-557.568 -147.726)"/><path class="ag" d="M345.307,148.146s-.384.01-.466,1.607-.122,2.437-.18,3.228a17.336,17.336,0,0,1-.262,1.738,4.78,4.78,0,0,1-.325,1.49,3.427,3.427,0,0,1-.782,1.165,4.818,4.818,0,0,1-1.466.816,7.566,7.566,0,0,0-1.738.4,2.642,2.642,0,0,0-.718.456,9.167,9.167,0,0,0-1.932,2.616,36.459,36.459,0,0,0-1.728,6.515l.194-.325a3.084,3.084,0,0,1,.456-1.189c.422-.757.3-1.607.888-3.058a16.668,16.668,0,0,1,.864-1.884,6.993,6.993,0,0,1,1.9-2.316,6,6,0,0,1,2.315-.922l1.306-.864s.228-.442.529-.947a6.13,6.13,0,0,0,1.077-2.65,24.56,24.56,0,0,0-.228-3.83c.024-1.01.034-1.752.238-1.932s.058-.112.058-.112h0Z" transform="translate(-324.967 -143.394)"/><path class="ar" d="M631.613,153.879a18.54,18.54,0,0,0,.84-2.675c.049-.252.146-.5.17-.708a6.4,6.4,0,0,0,0-2.33,4.161,4.161,0,0,0-.83-1.248c-.238-.35-.349-.48-.3-.554a.538.538,0,0,1,.422-.18,1.445,1.445,0,0,1,1.034.48,6.259,6.259,0,0,1,.67,1.9l.311,1.935.791,2.437-3.107.947h0Z" transform="translate(-611.273 -141.505)"/><path class="as" d="M666.278,159.06a.493.493,0,0,1-.3,0,.433.433,0,0,1-.194.408,16.4,16.4,0,0,0-2.112.083,1.622,1.622,0,0,1-1.165-1.33c-.194-.782.146-1.859.034-2.568a15.732,15.732,0,0,0-.432-1.573c-.024-.325-.049-.408-.049-.612a1.125,1.125,0,0,0-.276-.058c-.024-.1.024-.18-.083-.35a1.931,1.931,0,0,1,.922.515,1.739,1.739,0,0,1,.442.563,4.513,4.513,0,0,1,.913,1.078c.253.5.743,2.1.854,2.364a1.739,1.739,0,0,0,.288.456c.281.35.694.928,1.16,1.024h0Z" transform="translate(-640.526 -148.162)"/><path class="ag" d="M706.47,187.5a13.456,13.456,0,0,1,.791,1.476,6.7,6.7,0,0,0,.816,1.607c-.194-.563-.539-1.67-.743-2.063a4.733,4.733,0,0,0-.864-1.019h0Z" transform="translate(-683.863 -181.5)"/><path class="at" d="M452.815,436.89a7.093,7.093,0,0,0-1.4.6c-.3.155-.587.286-.864.408a15.074,15.074,0,0,1-2.1.791c.049.058.073.082.073.082a.612.612,0,0,0,.131.374c-.073.073-1.044.733-.757,2.942.194-.073.422-.17.456-.17.059.01.073.17.146.17a.974.974,0,0,0,.563-.422,3.277,3.277,0,0,0,.626,2.34c.146-.17.515-.733.515-.733l.01-.18a4.874,4.874,0,0,1,.238-1.2,3.187,3.187,0,0,1,.6-1l2.077-2.966-.311-1.044h0Z" transform="translate(-433.509 -422.91)"/><path class="au" d="M532.443,362.537a1.149,1.149,0,0,1-.311.155,1.2,1.2,0,0,1,.2-.947,12.67,12.67,0,0,0,1.272-1.632,3.54,3.54,0,0,1,1.238-2.185c1.165-1.044,1.621-1.4,1.621-1.4l1.884-.947,2.316.913L539.516,361l-.893,2.112-3.552-.67-2.628.094h0Z" transform="translate(-515.079 -344.201)"/><path class="av" d="M585,440.083l.442-.553v-.393a2.511,2.511,0,0,0,1.019-.67c.529-.539,1.262-1.573,1.908-1.51s.709,1.4.733,1.777a10.211,10.211,0,0,0,.238,1.68c.146.456-1.573,2.184-1.573,2.184l-1.167.888-1.6-3.4Z" transform="translate(-566.28 -422.971)"/><path class="aw" d="M627.73,533.18s.359-.563.1-.684a4.15,4.15,0,0,1,.442-.718,3.628,3.628,0,0,1,.864-1.126,3.756,3.756,0,0,0,1.175-1.451,3.821,3.821,0,0,0,.107-.83,1.581,1.581,0,0,0,.228.155,1.356,1.356,0,0,1,.539,1.306,2.144,2.144,0,0,1-.384,1.189,5.711,5.711,0,0,1-.514.456c-.229.155-.311.335-.694.349a.459.459,0,0,1,.131-.073.892.892,0,0,0-.612.146c-.214.194-.668.791-.9.971-.228.146-.48.311-.48.311h0Z" transform="translate(-607.643 -511.462)"/><path class="ax" d="M694.391,343.668a5.846,5.846,0,0,0-1.786-.349c-1.02-.034-2.51.024-3.971.034-1.573.01-3-.539-4.98-.636-.325-.194-1.152-1.044-3.733.757.155-.01,1.874-.4,2.471.35a3,3,0,0,1,.35,2.306c-.155.67-.66,1.646-.864,2.33s-.155,1.044-.3,1.524-.466.718-.277,1.272c.253-.155.384-.155.806-1.1s.335-1.621,1.034-2.422a15.782,15.782,0,0,1,2.257-2.185,8.413,8.413,0,0,1,7.476-.359c.869-.092,1.519-1.52,1.519-1.52h0Z" transform="translate(-658.163 -331.391)"/><path class="ay" d="M590.877,350.376a.443.443,0,0,0-.024-.107.78.78,0,0,0-.131-.194,6.229,6.229,0,0,0-1.286-.107c-.757.083-1.442,1.02-1.762,1.5a8.86,8.86,0,0,1-1.15,1.607.159.159,0,0,0-.024-.107s.024.034-.024.083-.049.073-.024.1l.073.073a5.95,5.95,0,0,0,1.607-1.152,8.1,8.1,0,0,1,2.1-1.5,2.961,2.961,0,0,1,.646-.191h0Z" transform="translate(-567.668 -338.76)"/><path class="az" d="M1084.438,248.94s-.156.194-.35.408c-.432.456-1,.971-1.476,1.5-.456.5-.97.9-1.549,1.558s-1.248,1.393-1.417,1.607a1.583,1.583,0,0,0-.276.743c-.083-.058-.18-.121-.18-.121a1.221,1.221,0,0,0,.146.214c.121.17.31.384.408.515a1.567,1.567,0,0,1,.252.553c.058.01.432.083.9-.684s1.078-1.607,1.078-1.607l.971-1.442.612-1.223.768-1.369.117-.651h0Z" transform="translate(-1044.656 -240.974)"/><path class="ag" d="M1226.374,218.3a7.387,7.387,0,0,0-.816.768c-.228.288-.768,1.044-.768,1.044l.194-.024.985-.874.384-.684.019-.228Z" transform="translate(-1185.597 -211.314)"/><path class="ba" d="M1268.583,1154.359a1.013,1.013,0,0,1,.214-.636,4.618,4.618,0,0,0,1.369-1.9,12.464,12.464,0,0,0,.626-1.607,7.047,7.047,0,0,1-1.632,1.068c.146-.3.228-.514.3-.67-.083-.073-.432-.155-.466-.194.194-.194.3-.67.694-.985.5-.384,1.427-1.044,2.144-1.632a14.3,14.3,0,0,0,2.306-2.354.872.872,0,0,1,.131.252s-.709.923-1.077,1.51a1.437,1.437,0,0,0-.3.791l.67-.288s.194.719-.684,1.811c.384-.146.539-.058.757-.18a3.4,3.4,0,0,0-1.32,1.393,5.992,5.992,0,0,1-2.126,2.471,17.624,17.624,0,0,0-1.607,1.146h0Z" transform="translate(-1227.985 -1108.796)"/><path class="bb" d="M1129.894,297.819a5.354,5.354,0,0,0-.456,1.476c-.01.156-.049.277-.049.456a5.577,5.577,0,0,1-.1,1.524.8.8,0,0,0-.122-.252c-.073.2-.2.84-.311,1.077a5.059,5.059,0,0,1-.145-1.33c.01-.636.024-.757.024-.888a3.89,3.89,0,0,1-.2.612c-.073-.131-.155-.3-.253-.442a2.739,2.739,0,0,1-.194.311c-.01-.058-.034-.214-.049-.432a6.164,6.164,0,0,1-.01-.646,2.926,2.926,0,0,1,.66-1.116,9.339,9.339,0,0,0,1.2-1.98c.155-.335.815-1.728.815-1.728h.5l-.733,1.67s-.442.913-.67,1.248-.709,1.3-.923,1.67c.155-.2.286-.311.442-.5a8,8,0,0,0,.568-.723h0Z" transform="translate(-1091.928 -285.037)"/><path class="bc" d="M1204.557,216.32a2.091,2.091,0,0,1-.384.694c-.3.359-.947.84-1.262,1.223a3.307,3.307,0,0,0-.6,2.6,4.366,4.366,0,0,1,.757-1.369,10.5,10.5,0,0,0,1.248-1.786,3,3,0,0,0,.286-.947l.1-.121-.058-.277-.083-.02Z" transform="translate(-1163.77 -209.398)"/><path class="ag" d="M1398.77,527.243a5.3,5.3,0,0,1-.253-1.01c-.058-.481.1-.576-.083-1.126-.107-.335-.3-.288-.349-.335a2.853,2.853,0,0,1-.073-.83,3.108,3.108,0,0,0-.058-.791c-.073-.058-.121-.107-.228-.466a5.116,5.116,0,0,0-.238-.645c-.058-.107-.229-.2-.229-.311,0-.214.194-.325.194-.384-.01-.121-.155-.024-.194-.058-.048-.058.122-.408.059-.456-.024-.024-.194.18-.238.122s-.107-.636-.194-1.02-.17-.646-.179-.757-.67-1.99-.83-2.447a11.508,11.508,0,0,1-.325-1.175,6.116,6.116,0,0,0-.107-.646c-.024.049-.01.286-.049.277s-.155-.84-.194-.971a6.732,6.732,0,0,1-.288-.9c-.049-.325-.155-1.175-.228-1.753s-.107-.815-.107-.96a5.981,5.981,0,0,0-.058-1.058,9.856,9.856,0,0,0-.456-1.786c-.325-.816-1.189-2.9-1.344-3.422,0-.131.17-.058.17-.058s.422,1.058.733,1.874a12.541,12.541,0,0,0,.66,1.607,6.026,6.026,0,0,1,.718,2.184c.2,1.311.276,2.519.4,3.325a8.651,8.651,0,0,0,.228,1.2c.131.442.335.9.6,1.6a10.588,10.588,0,0,1,.49,1.5c.107.539.107.947.17,1.214.058.228.146.684.35,1.344s.5,1.51.708,2.039a11.274,11.274,0,0,1,.636,2.413,23.223,23.223,0,0,1,.185,2.67h0Z" transform="translate(-1348.153 -488.122)"/><path class="bd" d="M1250.627,213.048l-.024.058a.1.1,0,0,1,.058.122,2.933,2.933,0,0,1-.024.4c-.024.17-.073.3-.082.408a2.043,2.043,0,0,1-.288,1.141c-.1.18-.155.335-.2.442a1.311,1.311,0,0,1-.252.422c.17-.1.782-.48,1.092-.422a2.28,2.28,0,0,0-.743.67,1.671,1.671,0,0,0,.576,0,8.013,8.013,0,0,1,1.67-.238c.578.034.35-.694.35-.694l-.667-1.466-1.262-.888-.2.048Z" transform="translate(-1209.816 -206.184)"/><path class="be" d="M1278.777,200.532a4.489,4.489,0,0,1-.792-2.5,44.963,44.963,0,0,1-.179-4.8l-.457-1.116a2.6,2.6,0,0,0-.335-1.019c-.239-.276-.708-.743-.922-.971s-.456-.539-.6-.588a1.665,1.665,0,0,1,1.646-.815,1.744,1.744,0,0,1,1.762.937,9.167,9.167,0,0,1,.937,3.424,11.749,11.749,0,0,1-.2,5.257,5.355,5.355,0,0,1-.854,2.189Z" transform="translate(-1234.674 -182.688)"/><path class="bb" d="M1316.734,588.674a.954.954,0,0,0,.539-.122,1.516,1.516,0,0,0,1.33-.563,1.133,1.133,0,0,1-.107.888,2.027,2.027,0,0,1,.325-.2,3.062,3.062,0,0,1-.539,2.077.848.848,0,0,1,.626-.228,2.472,2.472,0,0,1-.214,1.558.633.633,0,0,1-.626.213,1.184,1.184,0,0,0,0-.2c-.01-.131-.058-.262-.024-.349a1.743,1.743,0,0,1-.5-.35,3.146,3.146,0,0,1-1.01-1.582.624.624,0,0,1,.456-.684.542.542,0,0,1-.107-.131.737.737,0,0,0-.146-.32Z" transform="translate(-1274.398 -569.174)"/><path class="bf" d="M1201.305,298.537s-.024-.034-.155.121c.024-.155.049-.3.058-.442a1.522,1.522,0,0,1,.238-.359c-.073.145-.122.276-.122.276a1.956,1.956,0,0,1,.442-.539c.18-.146.408-.213.5-.349a.9.9,0,0,0,.107-.194,3.022,3.022,0,0,0,.6-.612c.048-.058.121-.121.17-.18.082-.034.276-.121.5-.238s.5-.31.67-.384c.325-.146.67-.131.83-.359.121-.034.252-.4.228-.708a2.94,2.94,0,0,1,1.418,1.9,6.882,6.882,0,0,1-.35,2.918,4.46,4.46,0,0,1-.432,1.451c-.3.4-1.272.96-1.51,1.238-.2.228-.815.806-.791,1.223.024.311.408.48.49.539s.082.131.238.1.213-.107.277-.107.073.024.106.024a.35.35,0,0,0,.073-.01s-.025.442-1.058.576c-.073.01-.146.034-.238.049a.593.593,0,0,0,.326-.238c-.146-.024-.563-.049-.67-.083a1.289,1.289,0,0,1,.238-.286c.083-.073-.01-.1-.082-.058a3.874,3.874,0,0,0-.359.276,3.49,3.49,0,0,1-.422.384.947.947,0,0,1,.18-.83c-.059.01-.17.18-.277.146a1.545,1.545,0,0,1,.034-.529,2.42,2.42,0,0,1,.374-.6l1.524-2.724.325-2.063-3.49.678h0Z" transform="translate(-1162.713 -285.144)"/><path class="bg" d="M1165.542,409.964s-.083.058.083.17a1.846,1.846,0,0,1-.156.238c-.082.1-.17.156-.2.238a1.321,1.321,0,0,0-.131.359,1.769,1.769,0,0,1-.228.84,3.6,3.6,0,0,0-.214.408,3.024,3.024,0,0,0-.252.48,5.016,5.016,0,0,0-.082.636l.146-.18a1.365,1.365,0,0,1-.214.349c.058-.049.228-.17.515-.422a12.764,12.764,0,0,1,1.777-1.344,2.6,2.6,0,0,1-.578.107c.121-.121,1.214-1.4,1.786-1.524a.229.229,0,0,0,.049-.156l-.49-.048-1,.213-.145-.768-.665.4Z" transform="translate(-1127.033 -396.454)"/><path class="bh" d="M1199.553,389.833a1.346,1.346,0,0,0-.253.456,1.526,1.526,0,0,1-.238-.325.836.836,0,0,0-1.1-.466,2.018,2.018,0,0,1,0-.456,2.517,2.517,0,0,0,.757-.67,3.1,3.1,0,0,0,.588-.947c.1-.073.262-.194.48-.335.311-.213.684-.5.743-.83a1.985,1.985,0,0,1-.923.18c.18-.083.456-.17.422-.529.073-.049.131-.083.131-.083a.48.48,0,0,0-.17-.024c-.01-.034-.024-.082-.107-.058s-.1.024-.107.058a.516.516,0,0,0-.228.059,3.516,3.516,0,0,1-.4.286c.034-.058.082-.145.082-.145a1.686,1.686,0,0,0-.408.1,8.474,8.474,0,0,0-1.034.49c.034-.058.049-.1.073-.107s.083-.024.083-.034a.351.351,0,0,1-.01-.131,4.458,4.458,0,0,1,.384-.66,1.288,1.288,0,0,0,.2-.554l.743-.374,2.087-.48,1.354.083-.17.937-.8,1.636-.685,1.49-.782.913-.718.524h0Z" transform="translate(-1159.461 -371.954)"/><path class="bi" d="M1207.3,357.29a12.126,12.126,0,0,1-1.044,1.165c.146-.311,1.044-2.16,1.369-2.675-.073-.058-.17-.058.058-.96-.194.456-.262.694-.422.815a.3.3,0,0,1-.288.083.2.2,0,0,0,.024-.121s-.685-.083-1.152-.083a6.878,6.878,0,0,0-1.908.456,7.8,7.8,0,0,0-.781.276c-.146.121-.228.252-.3.286s-.335.121-.4.213-.155.2-.155.228-.024.059.049.034c.024-.01.2-.107.408-.228.276-.155.612-.335.854-.442a3.958,3.958,0,0,1,1.223-.286,7.626,7.626,0,0,1,1.1-.194,9.253,9.253,0,0,1,1.034.024c-.058.049-.107.107-.083.311a1.515,1.515,0,0,1-.1.262c-.145.4-.422,1.058-.576,1.393-.213.456-.456.84-.576,1.077a7.836,7.836,0,0,1-.645,1.2c-.261.335-.4.539-.48.612s-.67.5-.626.66a3.242,3.242,0,0,0,1.272-.84,10.209,10.209,0,0,1,.971-1.189,3.243,3.243,0,0,0,.864-1.223,5.377,5.377,0,0,1,.306-.854h0Z" transform="translate(-1163.825 -343.466)"/><path class="bj" d="M777.16,664.828a1.526,1.526,0,0,1-.35.66c-.238.214-.66.4-.709.757s.422.539.422.539a1.867,1.867,0,0,0-.262.757,5.021,5.021,0,0,0,.024.719.319.319,0,0,0-.1.1.792.792,0,0,0,.262.5c.238.194.442.311.563.262a1.148,1.148,0,0,1,.049.122s.18-.456.3-.854.228-.35.276-.9a5.262,5.262,0,0,1,.576-1.49l.36-.8-.587-.456-.83.087Z" transform="translate(-751.262 -643.468)"/><path class="bk" d="M807.169,692.2a3.53,3.53,0,0,0-.334.4,1.167,1.167,0,0,1-.5.491c-.228.083-.374.082-.359.311s.228.325.349.442a.568.568,0,0,1,.18.554.555.555,0,0,0,.325-.335c.121-.262.97-1.859.97-1.859h-.626Z" transform="translate(-780.178 -670.05)"/><path class="bl" d="M807.424,540.371a.48.48,0,0,0,0-.335c-.073-.146-.515-.194-.733-.359a.869.869,0,0,0-.733-.213c.034-.083.17-.262.058-.3a1.318,1.318,0,0,0-.611.228c-.107.083-.35.18-.4.238s-.131.17-.18.121-.073-.121-.155-.073a1.973,1.973,0,0,0-.553.563,2.88,2.88,0,0,1-.733,1.092c-.495.48-.709.791-.563.971s.214.049.238.2a1.311,1.311,0,0,1-.024.456c-.058.252-.155.49-.024.539.335.107.66-.1.733-.034.146.131-.083.6.262.694a1.072,1.072,0,0,0,.694-.083l1.272-.684,1.224-.645.626-1.238-.336-1.034-.064-.107Z" transform="translate(-777.088 -521.905)"/><path class="bm" d="M908.017,555.168a.51.51,0,0,1,.049-.612c.262-.287.636-.408.781-.587a.224.224,0,0,0-.107-.073.966.966,0,0,1,.422-.4.4.4,0,0,0-.276-.131c-.238,0-.384.146-.6.146s-.238-.107-.238-.107.359-.034.325-.194-.1-.17-.1-.17a3.646,3.646,0,0,0,.815-.442.888.888,0,0,0,.131-.408c.082,0,.563-.253.757-.146s.058.4.058.4a4.786,4.786,0,0,0,.887-.875c.262.024.384-.18.576-.18.238,0,.612.325.684,1.019a4.359,4.359,0,0,1,.049,1.33,6.137,6.137,0,0,0,.1,1.67c.082.335.276.3.276.3a.544.544,0,0,1-.17.262.811.811,0,0,0-.131.563,2.41,2.41,0,0,0,.073.262,1.213,1.213,0,0,0-.194.3.341.341,0,0,1-.311.2,1.491,1.491,0,0,0-.213,0c-.155.01-.2.034-.3,0s-.17-.073-.131-.384-1.2-1.034-1.2-1.034l-2.016-.718h0Z" transform="translate(-878.881 -533.746)"/><path class="bn" d="M838.092,707.763s.442.588,2.257.588a4.567,4.567,0,0,0,1.344-.131,3.668,3.668,0,0,0,1.655-1.2c.66-.781.515-1.1.515-1.1l-.384-.058-1.248.17-3.693,1.573-.448.16Z" transform="translate(-811.271 -683.272)"/><path class="bo" d="M832.883,673.089s-1.573.35-1.573-.645a3.46,3.46,0,0,1,1.214-2.17,4.56,4.56,0,0,1,.854-.384h1.451l.276.733-.121,1.582-2.1.884Z" transform="translate(-804.708 -648.454)"/><path class="bp" d="M857.492,676.17s-.3-.277-.985.1a2.464,2.464,0,0,0-1.272,1.859c-.034.626.515,1.092,1.369,1.116a4.351,4.351,0,0,0,1.214-.1c-.049-.058-.3-.374-.3-.374l-.024-2.6h0Z" transform="translate(-827.866 -654.437)"/><path class="bq" d="M866,683.56s-.073-.058-.288.058a4.714,4.714,0,0,0-.645.529,2.6,2.6,0,0,0-.288.238c-.3.359-.554.947-.408,1.238s.626.626,1.85.4L866,683.56h0Z" transform="translate(-836.672 -661.672)"/><path class="bo" d="M869.911,660.39a1.546,1.546,0,0,0-.194.782,1.287,1.287,0,0,0,1.3,1.33c.781.049,1.306-1.126,1.874-1.582a1.363,1.363,0,0,1,.694-.359,6.443,6.443,0,0,0-1.621-1.1c-1.165-.626-2.471-.709-3.18.252.335-.024,1.418-.3,1.418-.3l.529.17-.816.811h0Z" transform="translate(-840.979 -637.9)"/><path class="br" d="M943.917,694.938c-.034-.073-.058-.17.083-.194s.2-.01.253.1.1.194.024.238a.336.336,0,0,1-.359-.141Zm-.228-.684s-.049.034-.024-.034.073-.228.228-.194.122.2.1.252a.252.252,0,0,1-.252.1.081.081,0,0,1-.049-.121Z" transform="translate(-913.46 -671.812)"/><path class="bs" d="M534,663.568a1.5,1.5,0,0,0,.83.277,2.25,2.25,0,0,0,1.272-.758c.155-.17.288-.349.432-.49a2.569,2.569,0,0,0,.262-.262c.083-.1.17-.277.214-.335a4.456,4.456,0,0,1-.422.325,5.013,5.013,0,0,1-.626.325c-.131.049-1.49.768-1.49.768l-.471.149Z" transform="translate(-516.912 -640.816)"/><path class="bt" d="M552.34,586.568a1.957,1.957,0,0,1,.626-.238,11.681,11.681,0,0,1,1.2-.17l.66.288.262,1-.48,1.034-.612.384-.694-1.117-.96-1.175h0Z" transform="translate(-534.665 -567.403)"/><path class="bu" d="M518.429,533.3l-.229.171a1.482,1.482,0,0,0,.107-.432,4,4,0,0,1,.67-1.573,4.963,4.963,0,0,1,.359-.432.243.243,0,0,0-.194.048,2.326,2.326,0,0,1,.67-.684c.311-.192.432-.253.757-.1s.408.238.646.228a.729.729,0,0,0,.442-.262s.049.155-.131.515a7.236,7.236,0,0,1-.888,1.092l-1.476,1.01-.733.416h0Z" transform="translate(-501.618 -513.247)"/><path class="bv" d="M559.421,533.6s1.068.146,1.393-.155c.01.034.049.034.049.058a.084.084,0,0,1-.024.048.8.8,0,0,1,.107-.01.625.625,0,0,0,.131.024.757.757,0,0,0,.107-.01.182.182,0,0,1-.073.122c.049,0,.1.01.1.048s.01.156-.049.18a.22.22,0,0,1-.146-.01.6.6,0,0,0,.073.262.548.548,0,0,0,.576.325s.145.349-.466,1.126c-.082.107-.17.253-.276.374a1.416,1.416,0,0,0-.1.286,2.428,2.428,0,0,0,1.33-1.306,6.858,6.858,0,0,0,.3-2.65,1.365,1.365,0,0,0-.107-.529.459.459,0,0,0-.718-.083,8.775,8.775,0,0,1-1.189,1.238,4.054,4.054,0,0,1-1.02.66h0Z" transform="translate(-541.519 -514.553)"/><path class="bn" d="M509.109,634.163a.9.9,0,0,0-.311.576,1.882,1.882,0,0,0,.213,1.213,1.224,1.224,0,0,0,.937.694,1.028,1.028,0,0,0,.4-.083,2.521,2.521,0,0,0,.539-.335c.238-.18.432-.335.408-.349-.058-.024-1.466-1.189-1.466-1.189l-.529-.591-.189.064Z" transform="translate(-492.488 -613.809)"/><path class="bw" d="M544.7,654.313a1.233,1.233,0,0,0,.456-.131c.17-.107-1-1.262-1-1.262l.083,1.248Z" transform="translate(-526.747 -632.027)"/><path class="bx" d="M517.75,613.651a1.682,1.682,0,0,0-.146.35,6.122,6.122,0,0,0,.107,1.223.886.886,0,0,0,.782.636,1.106,1.106,0,0,0,.6-.194c0-.049-.359-.1-.456-.277a1.63,1.63,0,0,1-.1-.576c-.01-.155-.01-.325.049-.384a1.249,1.249,0,0,0,.155-.563l.466-.866H518.6l-.733.456Z" transform="translate(-501.037 -593.384)"/><path class="bo" d="M516.69,597.462a2.66,2.66,0,0,1,.913-.782.936.936,0,0,1,.626-.058l-.253.646-.359.4.024.2a1.244,1.244,0,0,0,.3.913.941.941,0,0,0,.782.359,1.018,1.018,0,0,0,.83-.67,1.884,1.884,0,0,0-.034-1.8,1.467,1.467,0,0,0-1.238-.671,1.732,1.732,0,0,0-1.592,1.461h0Z" transform="translate(-500.156 -576.928)"/><path class="by" d="M899.539,675.831c-.18-.083-.01-.587.17-.743a1.265,1.265,0,0,1,.806-.359c.145-.01.286.083.262.18a1.441,1.441,0,0,1-.515.612C899.947,675.768,899.743,675.923,899.539,675.831Z" transform="translate(-870.68 -653.137)"/><path class="bz" d="M589.051,623.162a.347.347,0,0,1,.335.238c.034.155-.083.466-.335.466-.2,0-.311-.252-.311-.325a.372.372,0,0,1,.049-.17A.278.278,0,0,1,589.051,623.162Z" transform="translate(-569.9 -603.22)"/><path class="ca" d="M520.9,626.67a1.127,1.127,0,0,0-.49.48,1.273,1.273,0,0,0-.1.768,1.879,1.879,0,0,0,.228.529.365.365,0,0,0,.277.17.49.49,0,0,0,.252-.359,2.559,2.559,0,0,1,.17-.986c.141-.3-.34-.6-.34-.6h0Z" transform="translate(-503.646 -606.617)"/><path class="cb" d="M536.728,614.447c-.058.034-.155.083-.131.146s.228.1.3.238a.508.508,0,0,1,.058.374.591.591,0,0,0,.17-.122c.107-.121.238-.286.349-.286.073,0,.146.034.214.034.107,0,.214-.034.228-.146.024-.146-.2-.277-.335-.252a.319.319,0,0,0-.049-.335c-.107-.1-.442.073-.515.122s-.291.228-.291.228h0Z" transform="translate(-519.422 -594.418)"/><path class="cc" d="M685.825,938.212l.718-.212.2.146s.145.311.374.349c-.073.155-.262.288-.252.4a.336.336,0,0,0,.107.194,1.671,1.671,0,0,0,.626,2.144c-.3.121-.684.288-.888.384a1.572,1.572,0,0,1,.587.214c.131.118.131.155.252.228s.194.17.17.213c-.083-.049-.359-.194-.408-.058s-1.2.083-1.2.083l-1.942.374a.351.351,0,0,0-.131-.374c-.238-.213-.529.01-.84-.228-.408-.311-.422-.67-.553-.806a2.566,2.566,0,0,1,1.034-.288.428.428,0,0,1-.058-.325c.058-.17.3-.277.228-.48.107-.024.155-.024.422-.359s.408-.408.6-.432a.886.886,0,0,0,.67-.335c.252-.238.17-.442.17-.442s.165-.053.107-.388h0Z" transform="translate(-660.805 -907.984)"/><path class="cd" d="M715.093,940.7c.01-.049.049-.073.311-.049s1.922-.155,2.374-.179a14.87,14.87,0,0,1,2.845.155c.782.165,1.573.359,1.956.456s.5.145.49.194a.141.141,0,0,1-.146.083c-.048-.01-1.32-.4-1.713-.48a15.526,15.526,0,0,0-2.5-.288,13.114,13.114,0,0,0-1.558.058,12.5,12.5,0,0,1-1.85.131c-.288-.034-.228-.034-.214-.083h0Z" transform="translate(-692.195 -910.36)"/><path class="ce" d="M460.6,1064.412a3.948,3.948,0,0,1,1.354,1.2.52.52,0,0,1-.155.733s.563,0,.49.311a4.678,4.678,0,0,1-1.6.995,2.585,2.585,0,0,1-.922.311c-.3.049-1.126-.1-1.3.146a.474.474,0,0,0-.049.529,2.75,2.75,0,0,0,.442.082s-.083.228-.9.253-1.019.082-1.068.17.155.034.529.1.9.1.9.1a1.654,1.654,0,0,1-.612.262,10.166,10.166,0,0,0-1.534.4,1.421,1.421,0,0,0,.384.213,2.429,2.429,0,0,0-.539.194c.073.049.17.107.17.107a3.357,3.357,0,0,1-.646.612,5.281,5.281,0,0,1-2.078.636c-1.175-.311-1.32-1.6-1.607-1.694-.432-.146-.636.145-1.019-.059a2.39,2.39,0,0,1,.442-.276c-.194-.1-1.2-.733-1.2-.733a7.5,7.5,0,0,0-.349-.67c-.194-.335-.48-.782-.694-1.175a9.557,9.557,0,0,0-.913-1.752c.073-.1.325-.083.325-.083l3.539,1.165,6.276.182,1.632-2.33.694.083Z" transform="translate(-433.79 -1030.272)"/><path class="cf" d="M547.18,1122a.551.551,0,0,0,.131.107,1.906,1.906,0,0,1,.422.325c.049-.073.17-.2.384,0s.48.059.645.107.18.083.18.083a1.218,1.218,0,0,1,.311-.17c.131-.049.286-.083.456-.131a2.553,2.553,0,0,1,.442-.083c.107.073.49.48,2.029-.121,1.452-.563,1.786-.626,2.029-.539.024-.058.049-.17.422-.155a2.89,2.89,0,0,0-.311-.685l-1.714-.587h-.937l-2.811.515-1.557.889-.121.448Z" transform="translate(-529.67 -1084.305)"/><path class="cg" d="M517.9,1078.441a.909.909,0,0,0,.422.539,2.436,2.436,0,0,1,.5.442s.073-.1.131-.194.107-.228.2-.262c.194-.083.636.073.733.048s.058-.194.146-.194c.2-.01.335.131.408.131s.252-.01.276-.048.034-.442.311-.636a.83.83,0,0,1,.768-.073c0,.073.01.252.2.262a.987.987,0,0,1,.384.034c.171.058.374-.01.466.276.083-.024.277-.048.228-.325a1.411,1.411,0,0,0,.384-.408c.049-.073.131-.155.194-.262a.791.791,0,0,1,.645.2c-.083.058-.131.1-.155.155a1.738,1.738,0,0,1,.194.228c.073.1.122.214.214.238a8.056,8.056,0,0,0,.913,0,1.835,1.835,0,0,1,.791.238c.049-.024.049-.034.17-.01s.214.034.083-.121c.073.034.155.107.228.034a.476.476,0,0,1,.335-.2c.2-.024.277.01.359-.2.107-.262-.262-.262-.262-.262s.17-.156.359-.359a1.637,1.637,0,0,0,.553-.83.585.585,0,0,0-.5-.709l-2.966.913-3.626-.18-3.092,1.539h0Z" transform="translate(-501.327 -1041.733)"/><path class="ch" d="M413.145,849.864a1.041,1.041,0,0,0-.155.408c-.059.286-.034.253-.083.456a8.512,8.512,0,0,0-.422,2.917c.224.684.612.937.854,1.49a2.153,2.153,0,0,1,.121.3c.083.359.01.636.107,1a1.1,1.1,0,0,0,.253.408c.288.3.757.587.96.791.286.3.694.913,1.213.971a1.75,1.75,0,0,0,1-.276,8.283,8.283,0,0,1,.768-.576,2.868,2.868,0,0,1,.645-.194,2.926,2.926,0,0,1,1.034-.049,9.967,9.967,0,0,0,1.632.326,4.439,4.439,0,0,0,1.058-.146c.694-.2,1.534-.554,2.087-.709.325-.1.587-.121.854-.18a1.842,1.842,0,0,0,1.058-.529c-.146-.17-.325-.432-1.3-.422a17.132,17.132,0,0,0-3,.733,2.524,2.524,0,0,1-1.6-.073c-.685-.255-.708-.424-.708-.424A3.071,3.071,0,0,1,418.5,854.3a3.2,3.2,0,0,1,.782-3.107.513.513,0,0,0,.155-.432,1.955,1.955,0,0,0,.374-1.344c-.155-.646-1.15-.515-1.15-.515l-5.519.965h0Z" transform="translate(-399.238 -821.723)"/><path class="ci" d="M458.778,946.91a.5.5,0,0,0-.058.262c.01.131.049.3.442.684a.838.838,0,0,1,.262.708,1.227,1.227,0,0,0,.626-.18c.359-.17.48.131.48.131a1.013,1.013,0,0,1,.335-.107.733.733,0,0,0,.3-.1,4.325,4.325,0,0,0,.791.636c.335.18.529.3.694.18a.459.459,0,0,0,.145-.422,1.26,1.26,0,0,0-.145-.253c-.107-.155-.277-.335-.288-.48-.024-.335.253-.733.194-.83s-.276-.121-.815.073a12.138,12.138,0,0,1-2.966-.306h0Z" transform="translate(-444.04 -916.609)"/><path class="cj" d="M494.246,968.309s-.276-.262-.18-1.534a1.582,1.582,0,0,1,.349.034A2.756,2.756,0,0,1,494.246,968.309Z" transform="translate(-478.236 -935.838)"/><path class="bo" d="M432.328,810.843a.76.76,0,0,0,.107-.1,2.41,2.41,0,0,0-.18,2.029,2.69,2.69,0,0,0,2.374,2,2.721,2.721,0,0,0,2.364-1.32c.262-.325.563-.733.83-1.01.4-.432.709-.554.709-.971,0-.854-.874-1.238-2.16-1.621a4.907,4.907,0,0,0-3.049-.074,1.667,1.667,0,0,0-1,1.058h0Z" transform="translate(-418.289 -783.673)"/><path class="ck" d="M567.781,1013.916l.1-.049s.024-.384.18-.374a.3.3,0,0,1,.213.3.18.18,0,0,1-.2.18.478.478,0,0,1-.286-.058Z" transform="translate(-549.611 -981.062)"/><path class="cl" d="M554.31,975.591s.1-.034.214.083a1.741,1.741,0,0,1,.646.034.491.491,0,0,1,.17.155,1.687,1.687,0,0,1-.757,0C554.31,975.771,554.31,975.591,554.31,975.591Z" transform="translate(-536.572 -944.368)"/><path class="cm" d="M596.725,968.3a1.2,1.2,0,0,0-.539-.262c-.049-.01-.059.024-.1.024s-.034-.083-.034-.083l-.157.083s-.024.034.058.1.194.107.228.2a.841.841,0,0,0,.049.146.519.519,0,0,0,.262-.049c.083-.049.238-.128.228-.16h0Z" transform="translate(-576.827 -937.005)"/><path class="cn" d="M545.21,998.19a.409.409,0,0,1,.374-.349.375.375,0,0,1,.4.3l-.194.194s-.146-.209-.576-.146Z" transform="translate(-527.763 -965.909)"/><path class="co" d="M592.034,957.032a1.015,1.015,0,0,1-.578.253.229.229,0,0,1,0-.3c.107-.155.228-.2.349-.156A.284.284,0,0,1,592.034,957.032Z" transform="translate(-572.476 -926.192)"/><path class="cm" d="M631.612,953.117c.01-.049-.024-.058,0-.083s.156-.073.18-.049,0,.049,0,.1a.23.23,0,0,1-.024.131.2.2,0,0,1-.18.059c-.049-.014-.058-.083-.058-.1C631.554,953.166,631.612,953.141,631.612,953.117Zm.829-.524c0-.024.083-.073.131-.073.073,0,.073.058.083.073s.024-.01.048.034.059.121.034.17a.177.177,0,0,1-.145.073A1.292,1.292,0,0,1,632.441,952.593Z" transform="translate(-611.321 -922.039)"/><path class="ch" d="M607.86,974.66a.677.677,0,0,1,.253.146c-.049.034-.122.073-.122.073a.364.364,0,0,0-.131-.219Z" transform="translate(-588.408 -943.471)"/><path class="bn" d="M600.314,897.492c-.024-.024.073-.082.131-.073s.083.049.146.058.073-.024.1-.049.107-.01.121,0a.287.287,0,0,1,.024.034.134.134,0,0,1,.048-.1.153.153,0,0,1,.131-.024.723.723,0,0,1,.049.18c-.01.024-.155.059-.18.034a1.748,1.748,0,0,0,.146.2c.014.024-.107.083-.155.073a1.978,1.978,0,0,1-.558-.34Zm.636-.806a.113.113,0,0,0-.049-.058c-.034-.01-.146,0-.146.058a1.8,1.8,0,0,0,.2.554c.122.17.2.31.286.349a.113.113,0,0,0,.146-.049,2.938,2.938,0,0,0,.024-.626,5.77,5.77,0,0,0-.049-.854.129.129,0,0,0-.155.024,4.548,4.548,0,0,0-.262.6h0Z" transform="translate(-581.1 -867.37)"/><path class="co" d="M592.257,991.983a.393.393,0,0,0-.335-.034c-.155.073-.146.359-.146.359a.23.23,0,0,0,.214-.024.652.652,0,0,0,.267-.3Z" transform="translate(-572.84 -960.182)"/><path class="cm" d="M613.906,941.514c-.01-.1-.1-.1-.1-.146a.109.109,0,0,1,.107-.083c.049,0,.1.058.156.1s.146.1.155.17-.1.276-.213.276-.083-.219-.107-.316Zm.937-.131s-.194.058-.18,0,.059-.073.122-.073a.192.192,0,0,1,.121-.059.105.105,0,0,1,.073.024s.131-.058.17-.024.01.034.034.073a.341.341,0,0,1,.059.146c0,.039-.146.121-.262.107C614.843,941.548,614.867,941.407,614.843,941.383Zm1.131-.219s.058.034.01.073a.793.793,0,0,1-.35.107c-.146,0-.276.024-.276-.024s.121-.146.194-.17a.154.154,0,0,1,.122-.058c.058,0,.286-.024.349-.034s.107.024.073.073C616.081,941.164,615.974,941.164,615.974,941.164Zm.335-1.5s-.073.155-.155.155-.083-.034-.083-.058.083-.121.073-.146c-.024,0-.083,0-.073-.058s.083-.107.155-.1a.321.321,0,0,1,.194-.073c.083,0,.155.024.155.073s-.1.155-.131.18-.087.064-.136.024Zm-1.107,2.869s-.1.01-.1.058c0,.024.024.024.058.01a.262.262,0,0,0,.058-.01c.01.01.01.058.083.058a.463.463,0,0,0,.17-.058c.058-.024.107-.049.107-.1a.145.145,0,0,0-.146-.122.193.193,0,0,0-.107.024s-.024-.049-.107,0-.073.049-.049.073c.044.039.029.064.029.064Zm-.548.5c0-.024.121-.073.155-.058a.62.62,0,0,1,.131.214c0,.024-.121.083-.17.083a.225.225,0,0,1-.131-.1c0-.01.058-.024.058-.034s-.043-.083-.043-.107Zm-.384-.709c.024-.01.024-.034.058-.058a.083.083,0,0,1,.073-.01.118.118,0,0,1,.083-.059c.058-.01.107,0,.1.024,0,.073.049.121.049.18s-.034.131-.155.18a.86.86,0,0,1-.311.024.16.16,0,0,1-.024-.156.4.4,0,0,1,.131-.126h0Z" transform="translate(-594.168 -909.329)"/><path class="ch" d="M630.207,1032.31s-.083.049-.083.073a.214.214,0,0,0-.01.073c0,.014.107-.01.121-.024S630.207,1032.335,630.207,1032.31Z" transform="translate(-609.951 -999.276)"/><path class="bn" d="M603.958,1024.412a1.02,1.02,0,0,1,.194.024c.049.024.083.073.034.131s-.1.146-.2.131-.238-.073-.238-.121a.232.232,0,0,1,.058-.17c.049-.039.073-.015.155,0h0Z" transform="translate(-584.424 -991.606)"/><path class="co" d="M588.026,1026.7a1.368,1.368,0,0,0-.194.18c-.049.058-.286.359-.359.422a.914.914,0,0,1,.082-.121.5.5,0,0,0-.2.262c-.058.18.325.277.578.35s.35.1.35.1a2.7,2.7,0,0,1-.238-.442c-.1-.228-.146-.252-.083-.359s.122-.179.122-.262C588.05,1026.749,588.026,1026.7,588.026,1026.7Z" transform="translate(-568.55 -993.846)"/><path class="bo" d="M435.661,1031.307a.291.291,0,0,0,.107,0,4.949,4.949,0,0,1,1.621-.238,8.667,8.667,0,0,1,1.752.288c1,.262,2.233.781,3.034,1.078.213.082.422.228.576.286a3.661,3.661,0,0,0,1,.3,3.9,3.9,0,0,0,1.306-.179c.553-.122,1.5-.18,2.33-.3a4.773,4.773,0,0,0,.791-.179,4.166,4.166,0,0,1-2.243.9,7.024,7.024,0,0,1-1.932.025,5.922,5.922,0,0,1-1.092-.194c-.286-.083-.874-.3-1.6-.48-.5-.131-1.068-.228-1.714-.349a20.263,20.263,0,0,1-3.936-.951Z" transform="translate(-421.719 -998.069)"/><line class="cp" x1="4.044" y1="3.777" transform="translate(9.073 23.306)"/><path class="e" d="M233.14,944.94c-.384.325-.791.636-1.189.937l-1.2.921c-.408.3-.806.612-1.214.913s-.815.587-1.248.864c.384-.325.791-.626,1.2-.922s.83-.586,1.224-.886l1.2-.923c.413-.3.811-.612,1.228-.9Zm-2.121,3.4s.432-.359.971-.864a20.789,20.789,0,0,1,1.752-1.573l-2.724,2.437Z" transform="translate(-220.985 -914.702)"/><path class="e" d="M313.56,977.107c.214-.213.442-.422.67-.626l.349-.3c.107-.1.228-.2.335-.311.213-.214.422-.442.636-.66a4.109,4.109,0,0,1,.335-.311.906.906,0,0,1,.194-.131.569.569,0,0,1,.2-.107c-.048.073-.107.107-.155.17s-.107.107-.155.155c-.107.107-.228.2-.335.3-.228.194-.466.384-.694.587s-.442.422-.67.626c-.247.209-.476.413-.714.608Zm2.9-1.942s-1.582,1.549-1.908,1.8Z" transform="translate(-303.526 -943.471)"/><path class="e" d="M346.568,990.44a5.164,5.164,0,0,1-.457.466l-.48.456c-.155.155-.3.311-.466.466s-.325.288-.5.422l.466-.456c.156-.155.325-.286.491-.442l.466-.456C346.242,990.736,346.4,990.581,346.568,990.44Zm.073.84a10.084,10.084,0,0,1-.515,1.189c-.408.816-1.019,1.835-1.286,2.355Z" transform="translate(-333.631 -958.746)"/><path class="e" d="M352.216,1016.69a1.364,1.364,0,0,1-.107.49,4.844,4.844,0,0,1-.194.456c-.073.146-.156.3-.238.442s-.18.286-.252.432l-.49.864c-.17.288-.335.578-.515.854a7.915,7.915,0,0,1,.442-.888c.17-.288.325-.576.48-.874a4.9,4.9,0,0,0,.2-.456c.073-.155.145-.3.2-.442s.131-.3.2-.442a2.859,2.859,0,0,1,.262-.437Z" transform="translate(-339.207 -984.156)"/><path class="cq" d="M447.39,1141.08a2.4,2.4,0,0,0-.432,1.442C447.089,1142.1,447.254,1141.454,447.39,1141.08Zm.456.638s-.17,1.728-.311,2.578A10.408,10.408,0,0,0,447.846,1141.718Zm3.18,2.68a18.263,18.263,0,0,0-.733,2.7c.156-.6.456-1.836.733-2.7Z" transform="translate(-432.652 -1104.565)"/><path class="cr" d="M626.67,1137s1.165,1.922,2.039,3.563A8.084,8.084,0,0,0,626.67,1137Z" transform="translate(-606.617 -1100.616)"/><path class="cs" d="M724.52,1225.43a35.351,35.351,0,0,1,1.728,3.49A5.335,5.335,0,0,0,724.52,1225.43Z" transform="translate(-701.335 -1186.216)"/><path class="ct" d="M876.867,994.231c.194-.121.578-.782.913-.947a2.294,2.294,0,0,0,.888-.539,2.14,2.14,0,0,1,1.044-.84c.922-.4.288-.913.288-.913a2.975,2.975,0,0,1,.325-.276.921.921,0,0,0,.491-.782,3.4,3.4,0,0,0-.685-2.126c.515-.107,1.5-.18,2.112-.335a3.018,3.018,0,0,0,1.034-.432,1.179,1.179,0,0,1,.253-1.393,8.121,8.121,0,0,0,1.6-1.9,4.663,4.663,0,0,0-2.927.374,2.213,2.213,0,0,1,.277.155,5.488,5.488,0,0,0-1.49.636c-.694.587-.782,1.068-1.534,1.427s-1.51.262-2.135.553a5.645,5.645,0,0,0-.947.646c.049.058-.01.155.083.238-.058.083-.4.636-.743.636.034.131.325.228.325.228a1.566,1.566,0,0,1-.757.194,5.509,5.509,0,0,0,1.262,1.058c-.058.121-.3.3-.2.529s.384.539,1.49.791a9.787,9.787,0,0,1-2.112.034,3.5,3.5,0,0,0-1.582-.034c.058.058.213.058.349.213-.146.01-1.058-.107-1.369.3a2.646,2.646,0,0,0-.442,1.582.413.413,0,0,0-.253.529c.083.3.515.4.791.587s.3.276.563.228.684-.335.922-.335a.62.62,0,0,1,.408.18s.646-.311.709-.253.01.432.073.49a4.651,4.651,0,0,0,.986-.51Z" transform="translate(-844.478 -952.183)"/><path class="cu" d="M487.172,426.006a15.272,15.272,0,0,0-10.534-9.286h-21.4l.083,7.981h4.261v17.82H455.24v7.966h20.806c5.014,0,9.034-5.039,9.034-5.039,6.437-9.136,2.092-19.442,2.092-19.442Zm-11.015,14.073s-1.632,2.355-3.408,2.355H469.2l-.084-17.714h4.558s2.112.442,3.588,4.621C477.26,429.341,479.216,435.325,476.158,440.079Z" transform="translate(-440.672 -403.385)"/></g></svg>