<svg xmlns="http://www.w3.org/2000/svg" xmlns:xlink="http://www.w3.org/1999/xlink" width="300" height="300" viewBox="0 0 300 300"><defs><clipPath id="b93c2b82-3fd4-4596-8130-4e59a4924c90"><path id="a0750bbf-be51-448b-87a1-e7f2a1fa6663" data-name="SVGID" d="M229.48,150a46.605,46.605,0,1,0,0,.01Z" fill="none"/></clipPath><clipPath id="b14f50bc-f846-4b6b-814c-6a0eac086aff"><circle id="b981854d-03eb-49ea-adbd-6f8176a9cc7e" data-name="SVGID" cx="117.13" cy="150" r="46.61" fill="none"/></clipPath></defs><title>eurusdArtboard 1</title><g id="bbc3d856-def7-4a07-ac91-1465f291796e" data-name="forex-bg"><rect width="300" height="300" fill="#f0f0f0"/></g><g id="e4e9626a-8ccd-4c92-a59f-9bac7a6aa02b" data-name="eurusd"><g clip-path="url(#b93c2b82-3fd4-4596-8130-4e59a4924c90)"><path d="M252.78,110.57v7.17H183.8v-7.17Zm0,14.34v7.17H183.8v-7.17Zm0,14.34v7.17H183.8v-7.17Zm0,14.34v7.17H112.96v-7.17Zm0,14.34v7.17H112.96v-7.17Zm0,14.34v7.17H112.96v-7.17Z" fill="#f4f4f4" fill-rule="evenodd"/><path d="M112.96,103.4H252.78v7.17H112.96V103.4Zm0,86.04H252.78v7.17H112.96v-7.17Zm0-14.34H252.78v7.17H112.96V175.1Zm0-14.34H252.78v7.17H112.96v-7.17Zm0-14.34H252.78v7.17H112.96v-7.17Zm0-14.34H252.78v7.17H112.96v-7.17Zm0-14.34H252.78v7.17H112.96v-7.17Z" fill="#ff1612" fill-rule="evenodd"/><polygon points="112.96 103.4 183.81 103.4 183.81 153.59 112.96 153.59 112.96 103.4 112.96 103.4" fill="#0437a0" fill-rule="evenodd"/><path d="M177.9,105.88l.64,1.99h2.09l-1.69,1.22.65,1.99-1.69-1.23-1.69,1.23.65-1.99-1.69-1.22h2.09l.64-1.98h0Zm-59.04,20.01.64,1.99h2.09l-1.69,1.22.65,1.99-1.69-1.23-1.69,1.23.65-1.99-1.69-1.22h2.09l.64-1.99Zm5.9,5,.64,1.99h2.09l-1.69,1.22.65,1.99-1.69-1.23-1.69,1.23.65-1.99-1.69-1.22h2.09l.64-1.98h0Zm47.23,0,.64,1.99h2.09l-1.69,1.22.65,1.99-1.69-1.23-1.69,1.23.65-1.99-1.69-1.22h2.09l.64-1.98h0Zm-11.81,0,.64,1.99h2.09l-1.69,1.22.65,1.99-1.69-1.23-1.69,1.23.65-1.99-1.69-1.22h2.09l.64-1.98h0Zm-11.81,0,.64,1.99h2.09l-1.69,1.22.65,1.99-1.69-1.23-1.69,1.23.65-1.99-1.69-1.22h2.09l.64-1.98h0Zm-11.81,0,.64,1.99h2.09l-1.69,1.22.65,1.99-1.69-1.23-1.69,1.23.65-1.99-1.69-1.22h2.09l.64-1.98h0Zm-5.9-5,.64,1.99h2.09l-1.69,1.22.65,1.99-1.69-1.23-1.69,1.23.65-1.99-1.69-1.22h2.09l.64-1.99Zm35.42,0,.64,1.99h2.09l-1.69,1.22.65,1.99-1.69-1.23-1.69,1.23.65-1.99-1.69-1.22h2.09l.64-1.99Zm11.81,0,.64,1.99h2.09l-1.69,1.22.65,1.99-1.69-1.23-1.69,1.23.65-1.99-1.69-1.22h2.09l.64-1.99Zm0,10.01.64,1.99h2.09l-1.69,1.22.65,1.99-1.69-1.23-1.69,1.23.65-1.99-1.69-1.22h2.09l.64-1.98h0Zm-11.81,0,.64,1.99h2.09l-1.69,1.22.65,1.99-1.69-1.23-1.69,1.23.65-1.99-1.69-1.22h2.09l.64-1.98h0Zm-35.42,0,.64,1.99h2.09l-1.69,1.22.65,1.99-1.69-1.23-1.69,1.23.65-1.99-1.69-1.22h2.09l.64-1.98h0Zm-5.9,5,.64,1.99h2.09l-1.69,1.22.65,1.99-1.69-1.23-1.69,1.23.65-1.99-1.69-1.22h2.09l.64-1.98h0Zm47.23,0,.64,1.99h2.09l-1.69,1.22.65,1.99-1.69-1.23-1.69,1.23.65-1.99-1.69-1.22h2.09l.64-1.98h0Zm-11.81,0,.64,1.99h2.09l-1.69,1.22.65,1.99-1.69-1.23-1.69,1.23.65-1.99-1.69-1.22h2.09l.64-1.98h0Zm-11.81,0,.64,1.99h2.09l-1.69,1.22.65,1.99-1.69-1.23-1.69,1.23.65-1.99-1.69-1.22h2.09l.64-1.98h0Zm-11.81,0,.64,1.99h2.09l-1.69,1.22.65,1.99-1.69-1.23-1.69,1.23.65-1.99-1.69-1.22h2.09l.64-1.98h0Zm-17.71-5,.64,1.99h2.09l-1.69,1.22.65,1.99-1.69-1.23-1.69,1.23.65-1.99-1.69-1.22h2.09l.64-1.98h0Zm0,10.01.64,1.99h2.09l-1.69,1.22.65,1.98-1.69-1.23-1.69,1.23.65-1.98-1.69-1.23h2.09l.64-1.98Zm11.81,0,.64,1.99h2.09l-1.69,1.22.65,1.98-1.69-1.23-1.69,1.23.65-1.98-1.69-1.23h2.09l.64-1.98Zm35.42,0,.64,1.99h2.09l-1.69,1.22.65,1.98-1.69-1.23-1.69,1.23.65-1.98-1.69-1.23h2.09l.64-1.98Zm11.81,0,.64,1.99h2.09l-1.69,1.22.65,1.98-1.69-1.23-1.69,1.23.65-1.98-1.69-1.23h2.09l.64-1.98Zm-53.14-25.02.64,1.99h2.09l-1.69,1.22.65,1.99-1.69-1.23-1.69,1.23.65-1.99-1.69-1.22h2.09l.64-1.98h0Zm0-10.01.64,1.99h2.09l-1.69,1.22.65,1.98-1.69-1.23-1.69,1.23.65-1.98-1.69-1.23h2.09l.64-1.98Zm47.23,0,.64,1.99h2.09l-1.69,1.22.65,1.98-1.69-1.23-1.69,1.23.65-1.98-1.69-1.23h2.09l.64-1.98Zm-11.81,0,.64,1.99h2.09l-1.69,1.22.65,1.98-1.69-1.23-1.69,1.23.65-1.98-1.69-1.23h2.09l.64-1.98Zm-11.81,0,.64,1.99h2.09l-1.69,1.22.65,1.98-1.69-1.23-1.69,1.23.65-1.98-1.69-1.23h2.09l.64-1.98Zm-11.81,0,.64,1.99h2.09l-1.69,1.22.65,1.98-1.69-1.23-1.69,1.23.65-1.98-1.69-1.23h2.09l.64-1.98Zm-17.71,5,.64,1.99h2.09l-1.69,1.22.65,1.99-1.69-1.23-1.69,1.23.65-1.99-1.69-1.22h2.09l.64-1.98h0Zm53.14,5,.64,1.99h2.09l-1.69,1.22.65,1.99-1.69-1.23-1.69,1.23.65-1.99-1.69-1.22h2.09l.64-1.98h0Zm-11.81,0,.64,1.99h2.09l-1.69,1.22.65,1.99-1.69-1.23-1.69,1.23.65-1.99-1.69-1.22h2.09l.64-1.98h0Zm-11.81,0,.64,1.99h2.09l-1.69,1.22.65,1.99-1.69-1.23-1.69,1.23.65-1.99-1.69-1.22h2.09l.64-1.98h0Zm-11.81,0,.64,1.99h2.09l-1.69,1.22.65,1.99-1.69-1.23-1.69,1.23.65-1.99-1.69-1.22h2.09l.64-1.98h0Zm-5.9-5,.64,1.99h2.09l-1.69,1.22.65,1.99-1.69-1.23-1.69,1.23.65-1.99-1.69-1.22h2.09l.64-1.98h0Zm0-10.01.64,1.99h2.09l-1.69,1.22.65,1.99-1.69-1.23-1.69,1.23.65-1.99-1.69-1.22h2.09l.64-1.98h0Zm-11.81,0,.64,1.99h2.09l-1.69,1.22.65,1.99-1.69-1.23-1.69,1.23.65-1.99-1.69-1.22h2.09l.64-1.98h0Zm23.62,40.03.64,1.99h2.09l-1.69,1.22.65,1.98-1.69-1.23-1.69,1.23.65-1.98-1.69-1.23h2.09l.64-1.98Zm0-10.01.64,1.99h2.09l-1.69,1.22.65,1.99-1.69-1.23-1.69,1.23.65-1.99-1.69-1.22h2.09l.64-1.98h0Zm0-10.01.64,1.99h2.09l-1.69,1.22.65,1.99-1.69-1.23-1.69,1.23.65-1.99-1.69-1.22h2.09l.64-1.99Zm0-10.01.64,1.99h2.09l-1.69,1.22.65,1.99-1.69-1.23-1.69,1.23.65-1.99-1.69-1.22h2.09l.64-1.98h0Zm0-10.01.64,1.99h2.09l-1.69,1.22.65,1.99-1.69-1.23-1.69,1.23.65-1.99-1.69-1.22h2.09l.64-1.98h0Zm11.81,40.03.64,1.99H157l-1.69,1.22.65,1.98-1.69-1.23-1.69,1.23.65-1.98-1.69-1.23h2.09l.64-1.98Zm0-10.01.64,1.99H157l-1.69,1.22.65,1.99-1.69-1.23-1.69,1.23.65-1.99-1.69-1.22h2.09l.64-1.98h0Zm0-10.01.64,1.99H157l-1.69,1.22.65,1.99-1.69-1.23-1.69,1.23.65-1.99-1.69-1.22h2.09l.64-1.99Zm0-10.01.64,1.99H157l-1.69,1.22.65,1.99-1.69-1.23-1.69,1.23.65-1.99-1.69-1.22h2.09l.64-1.98h0Zm0-10.01.64,1.99H157l-1.69,1.22.65,1.99-1.69-1.23-1.69,1.23.65-1.99-1.69-1.22h2.09l.64-1.98h0Zm11.81,10.01.64,1.99h2.09l-1.69,1.22.65,1.99-1.69-1.23-1.69,1.23.65-1.99-1.69-1.22h2.09l.64-1.98h0Zm0-10.01.64,1.99h2.09l-1.69,1.22.65,1.99-1.69-1.23-1.69,1.23.65-1.99-1.69-1.22h2.09l.64-1.98h0Zm11.81,10.01.64,1.99h2.09l-1.69,1.22.65,1.99-1.69-1.23-1.69,1.23.65-1.99-1.69-1.22h2.09l.64-1.98h0Z" fill="#f4f4f4" fill-rule="evenodd"/></g><g clip-path="url(#b14f50bc-f846-4b6b-814c-6a0eac086aff)"><polygon points="187.04 103.4 187.04 196.61 47.22 196.61 47.22 103.4 187.04 103.4 187.04 103.4" fill="#0437a0" fill-rule="evenodd"/><path d="M117.12,111.32l1.24,3.74,3.94.03-3.17,2.34,1.19,3.76-3.21-2.29-3.21,2.29,1.19-3.76-3.17-2.34,3.94-.03,1.25-3.74h.01Zm-16.8,63.02,1.24,3.74,3.94.03-3.17,2.34,1.19,3.76-3.2-2.29-3.21,2.29,1.19-3.76-3.17-2.34,3.94-.03,1.24-3.74h.01ZM87.96,161.99l1.25,3.74,3.94.03-3.17,2.34,1.19,3.76-3.21-2.29-3.2,2.29,1.19-3.76-3.17-2.34,3.94-.03,1.24-3.74Zm-4.57-16.9,1.24,3.74,3.94.03L85.4,151.2l1.19,3.76-3.21-2.29-3.2,2.29,1.19-3.76-3.17-2.34,3.94-.03,1.24-3.74h.01Zm4.57-16.88,1.25,3.74,3.94.03-3.17,2.34,1.19,3.76-3.21-2.29-3.2,2.29,1.19-3.76-3.17-2.34,3.94-.03,1.24-3.74Zm12.35-12.37,1.25,3.74,3.94.03-3.17,2.34,1.19,3.76-3.21-2.29-3.2,2.29,1.19-3.76-3.17-2.34,3.94-.03,1.24-3.74Zm33.72.02,1.24,3.74,3.94.03-3.17,2.34,1.19,3.76-3.2-2.29-3.21,2.29,1.19-3.76-3.17-2.34,3.94-.03,1.24-3.74h.01Zm12.31,12.32,1.24,3.74,3.94.03-3.17,2.34,1.19,3.76-3.2-2.29-3.21,2.29,1.19-3.76-3.17-2.34,3.94-.03,1.24-3.74h.01Zm4.52,16.88,1.25,3.74,3.94.03-3.17,2.34,1.19,3.76-3.21-2.29-3.21,2.29,1.19-3.76-3.17-2.34,3.94-.03,1.24-3.74h.01Zm-4.49,16.84,1.24,3.74,3.94.03-3.17,2.34,1.19,3.76-3.21-2.29-3.2,2.29,1.19-3.76-3.17-2.34,3.94-.03,1.24-3.74h.01Zm-12.35,12.36,1.25,3.74,3.94.03-3.17,2.34,1.19,3.76-3.21-2.29-3.2,2.29,1.19-3.76-3.17-2.34,3.94-.03,1.24-3.74Zm-16.9,4.55,1.24,3.74,3.94.03-3.17,2.34,1.19,3.76-3.21-2.29-3.21,2.29,1.19-3.76-3.17-2.34,3.94-.03,1.25-3.74h.01Z" fill="#ffde27" fill-rule="evenodd"/></g></g></svg>