<svg id="MSFTDE" xmlns="http://www.w3.org/2000/svg" xmlns:xlink="http://www.w3.org/1999/xlink" width="70" height="70" viewBox="0 0 70 70">
  <defs>
    <clipPath id="clip-path">
      <rect id="Rectangle_14340" data-name="Rectangle 14340" width="44.095" height="60" fill="none"/>
    </clipPath>
  </defs>
  <rect id="Rectangle_13501" data-name="Rectangle 13501" width="70" height="70" fill="rgba(11,239,160,0.47)" opacity="0"/>
  <g id="Group_30008" data-name="Group 30008" transform="translate(12.952 5)">
    <g id="Group_30007" data-name="Group 30007" clip-path="url(#clip-path)">
      <path id="Path_47339" data-name="Path 47339" d="M1.265,0H22.136q0,10.436,0,20.871H1.265Z" transform="translate(-1.154)" fill="#f25022"/>
      <path id="Path_47340" data-name="Path 47340" d="M263.432,0H284.3q0,10.436,0,20.871-10.434,0-20.869,0,0-10.436,0-20.871" transform="translate(-240.319)" fill="#80ba01"/>
      <path id="Path_47341" data-name="Path 47341" d="M1.265,262.156q10.436,0,20.871,0,0,10.436,0,20.87H1.265Z" transform="translate(-1.154 -239.155)" fill="#02a4ef"/>
      <path id="Path_47342" data-name="Path 47342" d="M263.436,262.168q10.434,0,20.87,0v20.871H263.435q0-10.436,0-20.87" transform="translate(-240.322 -239.164)" fill="#ffb902"/>
      <path id="Path_47343" data-name="Path 47343" d="M425.741,586.995a2.433,2.433,0,0,1,1.954-.229c.006.383,0,.766,0,1.149a1.277,1.277,0,0,0-.988-.091.783.783,0,0,0-.447.625,8.43,8.43,0,0,0-.025,1c.654,0,1.307,0,1.961,0,0-.424-.005-.849.006-1.273.444-.127.884-.269,1.326-.4,0,.559-.005,1.119,0,1.678.442-.006.884,0,1.326,0v1.088c-.444-.018-.888,0-1.332-.006,0,.626,0,1.252,0,1.878.007.347-.019.695.022,1.04a.674.674,0,0,0,.29.535,1,1,0,0,0,1.019-.1v1.1a2.621,2.621,0,0,1-1.225.188,1.49,1.49,0,0,1-1.057-.485,2,2,0,0,1-.379-1.279c0-.96,0-1.921,0-2.882h-1.962q0,2.261,0,4.522H424.9q0-2.26,0-4.52c-.311-.006-.622,0-.933,0,0-.358,0-.716,0-1.074.309-.007.619,0,.929,0a5.716,5.716,0,0,1,.092-1.429,1.827,1.827,0,0,1,.756-1.032" transform="translate(-386.766 -535.19)" fill="#777"/>
      <path id="Path_47344" data-name="Path 47344" d="M110.024,591.246a.82.82,0,0,1,.742.263.764.764,0,0,1,.093.871.834.834,0,0,1-.892.374.758.758,0,0,1-.623-.747.776.776,0,0,1,.68-.761" transform="translate(-99.75 -539.363)" fill="#777"/>
      <path id="Path_47345" data-name="Path 47345" d="M0,593.229H1.95q.91,2.311,1.826,4.621c.155.385.3.775.463,1.157.781-1.925,1.573-3.846,2.347-5.774.625-.01,1.25,0,1.876,0q0,3.908,0,7.817c-.451,0-.9,0-1.353,0,0-1.923,0-3.845,0-5.769,0-.086,0-.173-.008-.259a1.042,1.042,0,0,0-.07.125c-.775,1.968-1.564,3.931-2.334,5.9-.321.012-.642,0-.963.006-.8-1.968-1.588-3.941-2.384-5.911q-.031-.061-.067-.119c-.016.842,0,1.686-.007,2.528q0,1.75,0,3.5c-.426,0-.851,0-1.276,0q0-3.909,0-7.818" transform="translate(0 -541.18)" fill="#777"/>
      <path id="Path_47346" data-name="Path 47346" d="M138.125,617.019a3.671,3.671,0,0,1,1.991.006,1.607,1.607,0,0,1,.382.159c-.007.427,0,.854,0,1.282a2.129,2.129,0,0,0-1.53-.47,1.573,1.573,0,0,0-1.113.618,2.162,2.162,0,0,0-.355,1.552,1.68,1.68,0,0,0,.542,1.114,1.7,1.7,0,0,0,1.254.373,2.555,2.555,0,0,0,1.2-.494c0,.4,0,.809,0,1.214a3.259,3.259,0,0,1-1.832.379,2.717,2.717,0,0,1-1.746-.728,2.792,2.792,0,0,1-.811-1.875,3.4,3.4,0,0,1,.53-2.08,2.7,2.7,0,0,1,1.487-1.051" transform="translate(-124.161 -562.76)" fill="#777"/>
      <path id="Path_47347" data-name="Path 47347" d="M309.614,616.945a3.547,3.547,0,0,1,1.855.193c0,.411,0,.822,0,1.232a2.362,2.362,0,0,0-1.408-.416.721.721,0,0,0-.64.354.579.579,0,0,0,.194.686c.38.254.834.362,1.227.59a1.765,1.765,0,0,1,.768.73,1.635,1.635,0,0,1-.349,1.886,2.565,2.565,0,0,1-1.865.567,3.985,3.985,0,0,1-1.363-.313c0-.432,0-.864,0-1.3a2.933,2.933,0,0,0,1.216.525,1.565,1.565,0,0,0,.925-.085.535.535,0,0,0,.16-.762,1.611,1.611,0,0,0-.585-.383,5.606,5.606,0,0,1-1.157-.592,1.387,1.387,0,0,1-.5-.76,1.709,1.709,0,0,1,.185-1.337,2,2,0,0,1,1.334-.819" transform="translate(-281.008 -562.772)" fill="#777"/>
      <path id="Path_47348" data-name="Path 47348" d="M199.412,617.475a1.512,1.512,0,0,1,1.244-.105c0,.447,0,.894,0,1.341a1.425,1.425,0,0,0-.906-.213,1.113,1.113,0,0,0-.838.67,2.477,2.477,0,0,0-.191,1.144q0,1.34,0,2.679H197.4q0-2.8,0-5.6c.441-.006.882,0,1.323,0,0,.32,0,.641,0,.962a1.716,1.716,0,0,1,.693-.878" transform="translate(-180.078 -563.125)" fill="#777"/>
      <path id="Path_47349" data-name="Path 47349" d="M110.738,618.471c.444,0,.889-.006,1.334,0-.005,1.866,0,3.733,0,5.6h-1.331q0-2.8,0-5.6" transform="translate(-101.022 -564.205)" fill="#777"/>
      <path id="Path_47350" data-name="Path 47350" d="M237.78,616.92a3.557,3.557,0,0,1,1.919.226,2.371,2.371,0,0,1,1.171,1.183,3.676,3.676,0,0,1,.267,1.767,2.972,2.972,0,0,1-.589,1.631,2.594,2.594,0,0,1-1.539.95,3.85,3.85,0,0,1-1.57,0,2.538,2.538,0,0,1-1.549-1.01,3.215,3.215,0,0,1-.491-2.092,2.987,2.987,0,0,1,.619-1.712,2.675,2.675,0,0,1,1.762-.942m.4,1.064a1.4,1.4,0,0,0-.882.348,1.782,1.782,0,0,0-.518,1.169,2.586,2.586,0,0,0,.2,1.4,1.339,1.339,0,0,0,.84.693,1.808,1.808,0,0,0,1.093-.048,1.224,1.224,0,0,0,.659-.647,2.937,2.937,0,0,0,.189-1.369,1.809,1.809,0,0,0-.463-1.168,1.443,1.443,0,0,0-1.121-.38" transform="translate(-214.734 -562.757)" fill="#777"/>
      <path id="Path_47351" data-name="Path 47351" d="M359.416,616.918a3.471,3.471,0,0,1,1.99.27,2.393,2.393,0,0,1,1.151,1.3,3.572,3.572,0,0,1,.208,1.338,3.065,3.065,0,0,1-.606,1.908,2.618,2.618,0,0,1-1.648.963,3.6,3.6,0,0,1-1.888-.16,2.484,2.484,0,0,1-1.362-1.321,3.709,3.709,0,0,1-.211-1.946,2.745,2.745,0,0,1,.884-1.721,2.775,2.775,0,0,1,1.481-.635m.362,1.067a1.371,1.371,0,0,0-.978.469,1.937,1.937,0,0,0-.406,1.116,2.661,2.661,0,0,0,.159,1.221,1.358,1.358,0,0,0,.707.74,1.773,1.773,0,0,0,.959.1,1.255,1.255,0,0,0,.783-.421,1.746,1.746,0,0,0,.347-.822,3.4,3.4,0,0,0-.011-1.2,1.538,1.538,0,0,0-.485-.892,1.471,1.471,0,0,0-1.074-.317" transform="translate(-325.686 -562.757)" fill="#777"/>
    </g>
  </g>
</svg>
