<svg id="NFLXO" xmlns="http://www.w3.org/2000/svg" xmlns:xlink="http://www.w3.org/1999/xlink" width="70" height="70" viewBox="0 0 70 70">
  <defs>
    <radialGradient id="radial-gradient" cx="0.483" cy="0.494" r="0.036" gradientUnits="objectBoundingBox">
      <stop offset="0"/>
      <stop offset="1" stop-opacity="0"/>
    </radialGradient>
  </defs>
  <rect id="Rectangle_13501" data-name="Rectangle 13501" width="70" height="70" fill="rgba(11,239,160,0.47)" opacity="0"/>
  <g id="layer1" transform="translate(33.214 16.275)">
    <g id="g4182" transform="translate(-11.987 -6.276)">
      <g id="g5747" transform="translate(0 0)">
        <path id="path4155" d="M-22.53-119.872l-.02,11.049-.02,11.049-.908-2.565v-.007l-1.177,24.6c1.158,3.262,1.776,5,1.782,5.012s.664.046,1.46.086c2.407.118,5.393.375,7.662.658a5.2,5.2,0,0,0,1.006.072c.033-.026.039-11.273.033-25l-.02-24.953Z" transform="translate(40.255 119.912)" fill="#b1060f" stroke="#000" stroke-width="0.291"/>
        <path id="path4157" d="M-93.618-120.04v24.979c0,13.739.013,24.992.033,25.012s.868-.066,1.894-.178,2.44-.256,3.144-.316c1.079-.092,4.314-.3,4.683-.3.112,0,.118-.559.132-10.582l.02-10.582.783,2.21c.118.342.158.447.276.783l1.177-24.591c-.25-.7-.118-.335-.4-1.138-.96-2.716-1.776-5.012-1.809-5.117l-.066-.184h-9.865Z" transform="translate(93.618 120.047)" fill="#b1060f" stroke="#000" stroke-width="0.291"/>
        <path id="path5715" d="M-22.53-119.872l-.02,11.049-.02,11.049-.908-2.565v-.007l-1.177,24.6c1.158,3.262,1.776,5,1.782,5.012s.664.046,1.46.086c2.407.118,5.393.375,7.662.658a5.2,5.2,0,0,0,1.006.072c.033-.026.039-11.273.033-25l-.02-24.953Z" transform="translate(40.255 119.912)" fill="#b1060f" stroke="#000" stroke-width="0.291"/>
        <path id="path5717" d="M-93.618-120.04v24.979c0,13.739.013,24.992.033,25.012s.868-.066,1.894-.178,2.44-.256,3.144-.316c1.079-.092,4.314-.3,4.683-.3.112,0,.118-.559.132-10.582l.02-10.582.783,2.21c.118.342.158.447.276.783l1.177-24.591c-.25-.7-.118-.335-.4-1.138-.96-2.716-1.776-5.012-1.809-5.117l-.066-.184h-9.865Z" transform="translate(93.618 120.047)" fill="#b1060f" stroke="#000" stroke-width="0.291"/>
        <path id="path5719" d="M-93.618-120.04v14.022l9.878,26.2c0-.6,0-.927.007-1.611l.02-10.582.783,2.21c4.341,12.312,6.675,18.915,6.689,18.928s.664.046,1.46.086c2.407.118,5.393.375,7.662.658a5.2,5.2,0,0,0,1.006.072c.02-.02.033-5.531.033-13.312l-9.826-28.267-.007,2.677-.02,11.049-.908-2.565c-.888-2.506-1.48-4.183-5.051-14.272-.96-2.716-1.776-5.012-1.809-5.117l-.066-.184h-9.852Z" transform="translate(93.618 120.047)" fill="url(#radial-gradient)"/>
        <path id="path5721" d="M-93.618-120.04l9.9,28.05V-92l.783,2.21c4.347,12.305,6.682,18.908,6.7,18.922s.664.046,1.46.086c2.407.118,5.393.375,7.662.658a5.141,5.141,0,0,0,1,.072l-9.813-27.86v.007l-.908-2.565c-.888-2.506-1.48-4.183-5.051-14.272-.96-2.716-1.776-5.012-1.809-5.117l-.066-.184h-4.926Z" transform="translate(93.618 120.047)" fill="#e50914"/>
      </g>
    </g>
  </g>
</svg>
