<?xml version="1.0" encoding="UTF-8"?>
<svg id="Layer_1" xmlns="http://www.w3.org/2000/svg" version="1.1" viewBox="0 0 210 80">
  <!-- Generator: Adobe Illustrator 29.1.0, SVG Export Plug-In . SVG Version: 2.1.0 Build 142)  -->
  <defs>
    <style>
      .st0 {
        fill: #930909;
      }

      .st1 {
        fill: #fff;
      }

      .st2 {
        fill: #c1e0f7;
      }

      .st3 {
        fill: none;
      }

      .st4 {
        fill: #ef4848;
      }

      .st5 {
        fill: #042247;
      }

      .st6 {
        fill: #cc0606;
      }

      .st7 {
        fill: #1d4f90;
      }

      .st8 {
        fill: #0f3b6b;
      }

      .st9 {
        fill: #3f0202;
      }
    </style>
  </defs>
  <rect class="st3" width="210" height="80"/>
  <g>
    <polygon class="st7" points="31.5 57.5 14 57.5 14 50.5 28 50.5 31.5 57.5"/>
    <path class="st7" d="M7,57.5H0V22.5h28c3.9,0,7,3.1,7,7v7c0,3.9-3.1,7-7,7h-14v-7h14v-7H7v28Z"/>
  </g>
  <g>
    <path class="st7" d="M151.5,52h-2c-3.6,0-6.5-2.9-6.5-6.5v-6c0-3.6,2.9-6.5,6.5-6.5h2c3.6,0,6.5,2.9,6.5,6.5v6c0,3.6-2.9,6.5-6.5,6.5ZM149.5,36c-1.9,0-3.5,1.6-3.5,3.5v6c0,1.9,1.6,3.5,3.5,3.5h2c1.9,0,3.5-1.6,3.5-3.5v-6c0-1.9-1.6-3.5-3.5-3.5h-2Z"/>
    <path class="st7" d="M186,52h-5.5c-3.6,0-6.5-2.9-6.5-6.5v-6c0-3.6,2.9-6.5,6.5-6.5h2c3.6,0,6.5,2.9,6.5,6.5v4.5h-12v1.5c0,1.9,1.6,3.5,3.5,3.5h5.5v3ZM177,41h9v-1.5c0-1.9-1.6-3.5-3.5-3.5h-2c-1.9,0-3.5,1.6-3.5,3.5v1.5Z"/>
    <path class="st7" d="M165,52h-3v-12.5c0-3.6,2.9-6.5,6.5-6.5h2.5v3h-2.5c-1.9,0-3.5,1.6-3.5,3.5v12.5Z"/>
    <polygon class="st7" points="141 31 141 28 128 28 128 52 131 52 131 42 139 42 139 39 131 39 131 31 141 31"/>
    <polygon class="st7" points="206.2 33 201 40 195.8 33 192 33 199.1 42.5 192 52 195.8 52 201 45 206.2 52 210 52 202.9 42.5 210 33 206.2 33"/>
    <path class="st7" d="M79.5,52h-2c-3.6,0-6.5-2.9-6.5-6.5v-6c0-3.6,2.9-6.5,6.5-6.5h2c3.6,0,6.5,2.9,6.5,6.5v6c0,3.6-2.9,6.5-6.5,6.5ZM77.5,36c-1.9,0-3.5,1.6-3.5,3.5v6c0,1.9,1.6,3.5,3.5,3.5h2c1.9,0,3.5-1.6,3.5-3.5v-6c0-1.9-1.6-3.5-3.5-3.5h-2Z"/>
    <path class="st7" d="M117.5,52h-2c-3.6,0-6.5-2.9-6.5-6.5v-6c0-3.6,2.9-6.5,6.5-6.5h2c3.6,0,6.5,2.9,6.5,6.5v6c0,3.6-2.9,6.5-6.5,6.5ZM115.5,36c-1.9,0-3.5,1.6-3.5,3.5v6c0,1.9,1.6,3.5,3.5,3.5h2c1.9,0,3.5-1.6,3.5-3.5v-6c0-1.9-1.6-3.5-3.5-3.5h-2Z"/>
    <path class="st7" d="M98.5,33h-2c-1.3,0-2.5.4-3.5,1v-9h-3v20.5c0,3.6,2.9,6.5,6.5,6.5h2c3.6,0,6.5-2.9,6.5-6.5v-6c0-3.6-2.9-6.5-6.5-6.5ZM102,45.5c0,1.9-1.6,3.5-3.5,3.5h-2c-1.9,0-3.5-1.6-3.5-3.5v-6c0-1.9,1.6-3.5,3.5-3.5h2c1.9,0,3.5,1.6,3.5,3.5v6Z"/>
    <path class="st7" d="M55,42h4l5.5,10h3.4l-5.6-10.1c2.7-.4,4.7-2.7,4.7-5.4v-3c0-3-2.5-5.5-5.5-5.5h-9.5v24h3v-10h0ZM55,31h6.5c1.4,0,2.5,1.1,2.5,2.5v3c0,1.4-1.1,2.5-2.5,2.5h-6.5v-8Z"/>
  </g>
  <g>
    <path class="st8" d="M35,31.3l-6.6-8.8H8.8c.2.7.8,1.3,2.2,1.6,2.6.5,7.3,2.8,10,5.4h7v7h-1.5c2,2.3,4.4,4.6,6.2,5.2,1.4-1.3,2.3-3.1,2.3-5.2v-5.2h0Z"/>
    <g>
      <path class="st6" d="M43.5,34.9c-.4-1.7-4.5-7.2-6.2-8.1.5-3.6-.6-5.5-.6-5.5.8,1.7.7,3.5.6,5.5-.2,2.1-.6,4.1-.6,4.1l-21.7-13.3s1.8-4,8.3-4.6c2.9-.2,9.1.7,13.4,3.6,7,4.7,8.9,18.2,8.9,18.2h-2.2.1Z"/>
      <path class="st4" d="M38.8,18.2c-1.8-1.9-4-3-6.7-4s-6.9-1.5-8.7-1.4c-5.1.5-7.5,3.1-8.1,4.2,1,.3,4.3,1.6,5.6,2.1,0,0,5.4-8,17.9-.9Z"/>
      <path class="st0" d="M34.7,29l2,1.8s.4-1.9.6-4.1c.3-2,.3-5.1-1.1-6,0,0-.3,4.1-3.1,6.5-.2,0,1.6,1.8,1.6,1.8Z"/>
      <path class="st1" d="M12.6,16.4c.8-.3,8.1,2,14.6,6,6.2,3.8,11.5,9.6,11.5,10.7,0,2.2-1.5,5-3.6,5.6-1,.3-6.6-4.5-10.5-8.7-4-4.3-10-7.4-14-7.2s.4-5.6,2-6.3h0Z"/>
      <path class="st2" d="M9.2,21.8c-.3,1.2-.3,1,1.4,1,4-.2,10,3,14,7.2,4,4.3,9.6,9.1,10.5,8.7,2-.7,3.4-4.1,3.6-6,0-.5-1.3-1.7-1.3-1.7,0,0-1.7,6.5-4,5.1-10.6-7.6-14-14.3-24.3-14.3h.1Z"/>
      <path class="st1" d="M42.6,38.3c1.8,1.5,4.2,1.4,5.6-.3,1.3-1.6.5-4.6-1.3-6s-3.9-1-5.2.6c-1.3,1.5-.9,4.2,1,5.6h0Z"/>
      <path class="st9" d="M45.4,31.2c-1.3-4.6-3.1-11.2-8.4-14.8-4.5-3-10.8-4.1-13.9-3.8-5.1.5-7.4,2.8-8.2,3.9l1.2.3c1.4-1.7,3.3-3.4,7.2-3.7,3-.3,9.3,1,13.5,3.9,4.3,2.9,7.3,10,8,14.3h.6ZM37.2,30.4c.3-.8.6-2.2.7-3.1,1.2,1.2,2.7,3.5,3.7,5l.5-.4c-1.3-1.9-2.6-4-4.2-5.5,0-1.3-.4-4.7-1.6-5.6,2.2,3.8.4,9,.4,9l.5.6h0Z"/>
      <path class="st2" d="M47.8,38c2.3-3.8-1.2-6-1.2-6,.2.3,1.9,5.9-3.9,6.4,1.8,1.2,4.2,1,5.1-.4h0Z"/>
      <path class="st5" d="M48.8,34.5c-.3-1.4-1.3-2.6-2.9-3.2s-3.3-.5-4.8,1.4c-.8,1-.7,2.2-.4,3.3,1.3,4.3,5.8,3.8,7.1,2.5s1.1-2.9,1-4h0ZM47.9,37.7c-1.1,1.9-3.9,1.5-5.4.3-.7-.6-2-3.2-1.1-4.8,1-1.6,2.4-2,3.7-1.8s5,2.5,2.8,6.3Z"/>
      <path class="st5" d="M39,32.8c0-.6-1.9-2.7-1.9-2.7-2.3-2.3-6.2-5.8-9.4-7.9-5-3.5-11.3-5.3-11.3-5.3,0,0-3.5-1.2-4.1-.6-.6.6-6.2,6.9-2.2,7.2,6.5.3,9.5,2.7,14.2,6.9.8.8,9.3,8.6,10.8,8.6,1.3.5,4-4.6,4-6.2h0ZM34.6,38.1c-.8,0-5.6-3.9-9.7-8.1-4.3-4.5-10.4-7.5-14.6-7.3-.7,0-.8-.3-.9-.6-.3-1,2.5-4.8,3.2-5.3.4-.3,7.9,1.6,13.5,5.2,6,3.8,12.1,9.8,12.4,10.7,0,1.7-2.9,6.1-4,5.5h0Z"/>
    </g>
  </g>
</svg>