<svg xmlns="http://www.w3.org/2000/svg" xmlns:xlink="http://www.w3.org/1999/xlink" width="300" height="300" viewBox="0 0 300 300"><defs><linearGradient id="bcb8a396-f382-4a54-be1a-c0d218fbd610" x1="191.201" y1="-563.851" x2="135.341" y2="-670.841" gradientTransform="matrix(1, 0, 0, -1, 0, -463)" gradientUnits="userSpaceOnUse"><stop offset="0" stop-color="#00ffa3"/><stop offset="1" stop-color="#dc1fff"/></linearGradient><linearGradient id="b85c669b-d47a-47ef-a619-5e3e7ddf1217" x1="166.781" y1="-551.091" x2="110.921" y2="-658.091" xlink:href="#bcb8a396-f382-4a54-be1a-c0d218fbd610"/><linearGradient id="b8ca5d41-4ac7-4417-b03a-756b0db218a9" x1="178.909" y1="-557.43" x2="123.049" y2="-664.43" xlink:href="#bcb8a396-f382-4a54-be1a-c0d218fbd610"/></defs><title>solusdArtboard 1</title><g id="b1d7dc4c-18f9-4c07-9756-95c6f31cce3f" data-name="Layer 2 copy 9"><rect width="300" height="300" fill="#070707"/></g><g id="a80e9ccf-f0da-45a0-9757-43a4a4178768" data-name="solusd"><path d="M115.86,170.87a3.314,3.314,0,0,1,2.34-.97h80.71a1.653,1.653,0,0,1,1.17,2.82l-15.94,15.94a3.314,3.314,0,0,1-2.34.97H101.09a1.653,1.653,0,0,1-1.17-2.82Z" fill="url(#bcb8a396-f382-4a54-be1a-c0d218fbd610)"/><path d="M115.86,111.34a3.4,3.4,0,0,1,2.34-.97h80.71a1.653,1.653,0,0,1,1.17,2.82l-15.94,15.94a3.314,3.314,0,0,1-2.34.97H101.09a1.653,1.653,0,0,1-1.17-2.82Z" fill="url(#b85c669b-d47a-47ef-a619-5e3e7ddf1217)"/><path d="M184.14,140.91a3.314,3.314,0,0,0-2.34-.97H101.09a1.653,1.653,0,0,0-1.17,2.82l15.94,15.94a3.314,3.314,0,0,0,2.34.97h80.71a1.653,1.653,0,0,0,1.17-2.82Z" fill="url(#b8ca5d41-4ac7-4417-b03a-756b0db218a9)"/></g></svg>