<svg xmlns="http://www.w3.org/2000/svg" xmlns:xlink="http://www.w3.org/1999/xlink" width="300" height="300" viewBox="0 0 300 300"><defs><clipPath id="ffea45f2-4b07-4b07-94ff-41922960ebce"><rect id="e235e712-27ad-46c2-82ae-ea22bc69f6ce" data-name="SVGID" x="84" y="84" width="132" height="132" fill="none"/></clipPath><mask id="b0dcf2f2-891e-4808-a157-7ba5cea0cd67" x="84" y="84" width="132" height="132" maskUnits="userSpaceOnUse"><g id="bd04915a-d15d-40aa-b8d4-578f4c9d1cf8" data-name="mask0 2006 197"><path d="M216,84H84V216H216Z" fill="#fff"/></g></mask></defs><title>soyArtboard 1</title><g id="aeaa5ee7-5ef5-4220-b0d1-bd8a35fdcb9a" data-name="soft-bg"><rect width="300" height="300" fill="#f1f5ff"/></g><g id="ff7d4061-1adb-4532-8cdb-013ee1d21d15" data-name="soy"><g clip-path="url(#ffea45f2-4b07-4b07-94ff-41922960ebce)"><g mask="url(#b0dcf2f2-891e-4808-a157-7ba5cea0cd67)"><path d="M124.8,205.107a62.363,62.363,0,0,1-22.5-4.724,5.5,5.5,0,0,1-2.96-2.994c-1.579-3.875-9.023-23.971-.365-39.013,4.173-7.246,11.2-12.026,20.953-14.247,1.38-9.023,7.6-21.159,24.589-24.263,1.515-5.307,5.323-14.325,14.378-19.814,9.894-5.994,22.919-6.04,38.72-.148a5.491,5.491,0,0,1,3.25,3.289c5.72,15.87,5.527,28.894-.575,38.713-5.586,9-14.647,12.7-19.975,14.163-3.287,16.951-15.49,23.034-24.53,24.315-2.331,9.719-7.186,16.7-14.48,20.792A33.49,33.49,0,0,1,124.8,205.107Zm-16.081-14.035c5.242,1.864,18.182,5.576,27.205.511,5.242-2.941,8.556-8.752,9.845-17.268a5.607,5.607,0,0,1,5.71-4.67c1.649.032,16.591.062,18.482-18.705a5.5,5.5,0,0,1,4.828-4.912c.2-.027,10.979-1.491,16.21-10.006,3.91-6.368,4.023-15.332.355-26.67-11.3-3.793-20.26-3.782-26.678.059-8.61,5.156-10.168,15.992-10.184,16.1a5.532,5.532,0,0,1-4.963,4.77c-18.761,1.681-18.949,16.618-18.911,18.315a5.536,5.536,0,0,1-4.733,5.619c-8.529,1.195-14.378,4.441-17.375,9.652C103.343,172.838,106.915,185.819,108.719,191.072Z" fill="#081455"/><path d="M117.413,170.346l-.231,11,11,.231.231-11Z" fill="#173cff"/><path d="M144.907,144.144l-1.09,10.945,10.952,1.091,1.09-10.946Z" fill="#173cff"/><path d="M171.115,118.826l-.816,10.968,10.973.816.816-10.968Z" fill="#173cff"/></g></g></g></svg>