<svg xmlns="http://www.w3.org/2000/svg" xmlns:xlink="http://www.w3.org/1999/xlink" width="300" height="300" viewBox="0 0 300 300"><defs><clipPath id="a44c47c2-cada-498e-90e9-12ee17b911df"><circle id="f075f6d0-a4fa-4749-a8e7-4fff77e3f0f0" data-name="SVGID" cx="150" cy="150" r="52.11" fill="none"/></clipPath></defs><title>spx500Artboard 1</title><g id="f871fa6e-cd3c-4dce-828d-e084cb8885e5" data-name="forex-bg"><rect width="300" height="300" fill="#f0f0f0"/></g><g id="f392bf6e-8565-4838-9ea8-836fc629c28a" data-name="spx500"><g clip-path="url(#a44c47c2-cada-498e-90e9-12ee17b911df)"><path d="M228.16,105.91v8.02H151.04v-8.02Zm0,16.03v8.02H151.04v-8.02Zm0,16.03v8.02H151.04v-8.02Zm0,16.03v8.02H71.84V154H228.16Zm0,16.04v8.02H71.84v-8.02H228.16Zm0,16.03v8.02H71.84v-8.02H228.16Z" fill="#f4f4f4" fill-rule="evenodd"/><path d="M71.84,97.89H228.17v8.02H71.84V97.89Zm0,96.2H228.17v8.02H71.84v-8.02Zm0-16.03H228.17v8.02H71.84v-8.02Zm0-16.03H228.17v8.01H71.84v-8.01Zm0-16.04H228.17v8.02H71.84v-8.02Zm0-16.03H228.17v8.02H71.84v-8.02Zm0-16.03H228.17v8.02H71.84v-8.02Z" fill="#ff1612" fill-rule="evenodd"/><polygon points="71.84 97.89 151.04 97.89 151.04 154.01 71.84 154.01 71.84 97.89 71.84 97.89" fill="#0437a0" fill-rule="evenodd"/><path d="M144.44,100.67l.72,2.22h2.34l-1.89,1.36.73,2.22-1.89-1.38-1.89,1.38.73-2.22-1.89-1.37h2.34l.72-2.22h0ZM78.43,123.05l.72,2.22h2.33l-1.89,1.36.73,2.22-1.89-1.38-1.89,1.38.73-2.22-1.89-1.37h2.33l.72-2.22h0Zm6.6,5.6.72,2.22h2.33l-1.89,1.36.73,2.22-1.89-1.38-1.89,1.38.73-2.22-1.89-1.37h2.33l.72-2.22h0Zm52.81,0,.72,2.22h2.33L139,132.23l.73,2.22-1.89-1.38-1.89,1.38.73-2.22-1.89-1.37h2.33l.72-2.22h0Zm-13.2,0,.72,2.22h2.34l-1.89,1.36.73,2.22-1.89-1.38-1.89,1.38.73-2.22-1.89-1.37h2.33l.72-2.22h0Zm-13.2,0,.72,2.22h2.33l-1.89,1.36.73,2.22-1.89-1.38-1.89,1.38.73-2.22-1.89-1.37h2.34l.72-2.22h0Zm-13.2,0,.72,2.22h2.34l-1.89,1.36.73,2.22-1.89-1.38-1.89,1.38.73-2.22-1.89-1.37h2.34l.72-2.22h0Zm-6.6-5.6.72,2.22H94.7l-1.89,1.36.72,2.22-1.89-1.38-1.89,1.38.73-2.22-1.89-1.37h2.33l.72-2.22h0Zm39.61,0,.72,2.22h2.33l-1.89,1.36.73,2.22-1.89-1.38-1.89,1.38.73-2.22-1.89-1.37h2.34l.72-2.22h0Zm13.2,0,.72,2.22h2.34l-1.89,1.36.73,2.22-1.89-1.38-1.89,1.38.73-2.22-1.89-1.37h2.34l.72-2.22h0Zm0,11.19.72,2.22h2.34l-1.89,1.36.73,2.22-1.89-1.38-1.89,1.38.73-2.22-1.89-1.37h2.34l.72-2.22h0Zm-13.2,0,.72,2.22h2.33l-1.89,1.36.73,2.22-1.89-1.38-1.89,1.38.73-2.22-1.89-1.37h2.34l.72-2.22h0Zm-39.61,0,.72,2.22H94.7l-1.89,1.36.72,2.22-1.89-1.38-1.89,1.38.73-2.22-1.89-1.37h2.33l.72-2.22h0Zm-6.6,5.59.72,2.22h2.33l-1.89,1.36.73,2.22-1.89-1.38-1.89,1.38.73-2.22-1.89-1.37h2.33l.72-2.22h0Zm52.81,0,.72,2.22h2.33l-1.89,1.36.73,2.22-1.89-1.38-1.89,1.38.73-2.22-1.89-1.37h2.33l.72-2.22h0Zm-13.2,0,.72,2.22h2.34l-1.89,1.36.73,2.22-1.89-1.38-1.89,1.38.73-2.22-1.89-1.37h2.33l.72-2.22h0Zm-13.2,0,.72,2.22h2.33l-1.89,1.36.73,2.22-1.89-1.38-1.89,1.38.73-2.22-1.89-1.37h2.34l.72-2.22h0Zm-13.2,0,.72,2.22h2.34l-1.89,1.36.73,2.22-1.89-1.38-1.89,1.38.73-2.22-1.89-1.37h2.34l.72-2.22h0Zm-19.8-5.59.72,2.22H81.5l-1.89,1.36.73,2.22-1.89-1.38-1.89,1.38.73-2.22-1.89-1.37h2.33l.72-2.22h0Zm0,11.19.72,2.22H81.5l-1.89,1.36.73,2.22-1.89-1.38-1.89,1.38.73-2.22-1.89-1.37h2.33l.72-2.22h0Zm13.2,0,.72,2.22h2.34l-1.89,1.36.72,2.22-1.89-1.38-1.89,1.38.73-2.22-1.89-1.37h2.33l.72-2.22h0Zm39.61,0,.72,2.22h2.33l-1.89,1.36.73,2.22-1.89-1.38-1.89,1.38.73-2.22-1.89-1.37h2.34l.72-2.22h0Zm13.2,0,.72,2.22h2.34l-1.89,1.36.73,2.22-1.89-1.38-1.89,1.38.73-2.22-1.89-1.37h2.34l.72-2.22h0ZM85.04,117.46l.72,2.22h2.33l-1.89,1.36.73,2.22-1.89-1.38-1.89,1.38.73-2.22-1.89-1.37h2.33l.72-2.22h0Zm0-11.19.72,2.22h2.33l-1.89,1.36.73,2.22-1.89-1.38-1.89,1.38.73-2.22-1.89-1.37h2.33l.72-2.22h0Zm52.81,0,.72,2.22h2.33l-1.89,1.36.73,2.22-1.89-1.38-1.89,1.38.73-2.22-1.89-1.37h2.33l.72-2.22h0Zm-13.2,0,.72,2.22h2.34l-1.89,1.36.73,2.22-1.89-1.38-1.89,1.38.73-2.22-1.89-1.37h2.33l.72-2.22h0Zm-13.2,0,.72,2.22h2.33l-1.89,1.36.73,2.22-1.89-1.38-1.89,1.38.73-2.22-1.89-1.37h2.34l.72-2.22h0Zm-13.2,0,.72,2.22h2.34l-1.89,1.36.73,2.22-1.89-1.38-1.89,1.38.73-2.22-1.89-1.37h2.34l.72-2.22h0Zm-19.8,5.6.72,2.22H81.5l-1.89,1.36.73,2.22-1.89-1.38-1.89,1.38.73-2.22-1.89-1.37h2.33l.72-2.22h0Zm59.41,5.59.72,2.22h2.33l-1.89,1.36.73,2.22-1.89-1.38-1.89,1.38.73-2.22-1.89-1.37h2.33l.72-2.22h0Zm-13.2,0,.72,2.22h2.34l-1.89,1.36.73,2.22-1.89-1.38-1.89,1.38.73-2.22-1.89-1.37h2.33l.72-2.22h0Zm-13.2,0,.72,2.22h2.33l-1.89,1.36.73,2.22-1.89-1.38-1.89,1.38.73-2.22-1.89-1.37h2.34l.72-2.22h0Zm-13.2,0,.72,2.22h2.34l-1.89,1.36.73,2.22-1.89-1.38-1.89,1.38.73-2.22-1.89-1.37h2.34l.72-2.22h0Zm-6.6-5.59.72,2.22h2.34l-1.89,1.36.72,2.22-1.89-1.38-1.89,1.38.73-2.22-1.89-1.37h2.33l.72-2.22h0Zm0-11.19.72,2.22h2.34l-1.89,1.36.72,2.22-1.89-1.38-1.89,1.38.73-2.22-1.89-1.37h2.33l.72-2.22h0Zm-13.2,0,.72,2.22h2.33l-1.89,1.36.73,2.22-1.89-1.38-1.89,1.38.73-2.22-1.89-1.37h2.33l.72-2.22h0Zm26.4,44.75.72,2.22h2.33l-1.89,1.36.73,2.22-1.89-1.38-1.89,1.38.73-2.22-1.89-1.37h2.34l.72-2.22h0Zm0-11.19.72,2.22h2.33l-1.89,1.36.73,2.22-1.89-1.38-1.89,1.38.73-2.22-1.89-1.37h2.34l.72-2.22h0Zm0-11.19.72,2.22h2.33l-1.89,1.36.73,2.22-1.89-1.38-1.89,1.38.73-2.22-1.89-1.37h2.34l.72-2.22h0Zm0-11.19.72,2.22h2.33l-1.89,1.36.73,2.22-1.89-1.38-1.89,1.38.73-2.22-1.89-1.37h2.34l.72-2.22h0Zm0-11.19.72,2.22h2.33l-1.89,1.36.73,2.22-1.89-1.38-1.89,1.38.73-2.22-1.89-1.37h2.34l.72-2.22h0Zm13.2,44.75.72,2.22h2.34L119.23,149l.73,2.22-1.89-1.38-1.89,1.38.73-2.22-1.89-1.37h2.34l.72-2.22h0Zm0-11.19.72,2.22h2.34l-1.89,1.36.73,2.22-1.89-1.38-1.89,1.38.73-2.22-1.89-1.37h2.34l.72-2.22h0Zm0-11.19.72,2.22h2.34l-1.89,1.36.73,2.22-1.89-1.38-1.89,1.38.73-2.22-1.89-1.37h2.34l.72-2.22h0Zm0-11.19.72,2.22h2.34l-1.89,1.36.73,2.22-1.89-1.38-1.89,1.38.73-2.22-1.89-1.37h2.34l.72-2.22h0Zm0-11.19.72,2.22h2.34l-1.89,1.36.73,2.22-1.89-1.38-1.89,1.38.73-2.22-1.89-1.37h2.34l.72-2.22h0Zm13.2,11.19.72,2.22h2.33l-1.89,1.36.73,2.22-1.89-1.38-1.89,1.38.73-2.22-1.89-1.37h2.34l.72-2.22h0Zm0-11.19.72,2.22h2.33l-1.89,1.36.73,2.22-1.89-1.38-1.89,1.38.73-2.22-1.89-1.37h2.34l.72-2.22h0Zm13.2,11.19.72,2.22h2.34l-1.89,1.36.73,2.22-1.89-1.38-1.89,1.38.73-2.22-1.89-1.37h2.34l.72-2.22h0Z" fill="#f4f4f4" fill-rule="evenodd"/></g><rect x="116.29" y="162.03" width="67.43" height="28.09" rx="14.04" fill="#173cff"/><path d="M144.42,172.8h-4.17v1.84a1.87,1.87,0,0,1,.75-.48,2.956,2.956,0,0,1,1.04-.19,2.874,2.874,0,0,1,1.66.45,2.692,2.692,0,0,1,.97,1.17,3.846,3.846,0,0,1,.31,1.56,3.419,3.419,0,0,1-.88,2.48,3.292,3.292,0,0,1-2.48.91,4.319,4.319,0,0,1-1.86-.37,2.715,2.715,0,0,1-1.21-1.02,2.958,2.958,0,0,1-.47-1.51h2.23a1.146,1.146,0,0,0,.39.69,1.247,1.247,0,0,0,.84.27,1.078,1.078,0,0,0,.93-.4,1.681,1.681,0,0,0,.31-1.07,1.412,1.412,0,0,0-.32-1,1.4,1.4,0,0,0-1.68-.13,1.01,1.01,0,0,0-.39.58h-2.2v-5.81h6.24v2Z" fill="#fff"/><path d="M147.12,171.93a3.758,3.758,0,0,1,5.72,0,6.439,6.439,0,0,1,.89,3.62,6.569,6.569,0,0,1-.89,3.65,3.758,3.758,0,0,1-5.72,0,6.5,6.5,0,0,1-.89-3.65A6.394,6.394,0,0,1,147.12,171.93Zm4.08,1.54a1.183,1.183,0,0,0-1.21-.73,1.162,1.162,0,0,0-1.21.73,5.716,5.716,0,0,0-.29,2.08,8.694,8.694,0,0,0,.11,1.5,1.938,1.938,0,0,0,.43.96,1.456,1.456,0,0,0,1.94,0,1.855,1.855,0,0,0,.43-.96,8.862,8.862,0,0,0,.11-1.5,5.943,5.943,0,0,0-.29-2.08Z" fill="#fff"/><path d="M155.83,171.93a3.758,3.758,0,0,1,5.72,0,6.439,6.439,0,0,1,.89,3.62,6.569,6.569,0,0,1-.89,3.65,3.758,3.758,0,0,1-5.72,0,6.5,6.5,0,0,1-.89-3.65A6.394,6.394,0,0,1,155.83,171.93Zm4.08,1.54a1.183,1.183,0,0,0-1.21-.73,1.162,1.162,0,0,0-1.21.73,5.716,5.716,0,0,0-.29,2.08,8.694,8.694,0,0,0,.11,1.5,1.938,1.938,0,0,0,.43.96,1.456,1.456,0,0,0,1.94,0,1.855,1.855,0,0,0,.43-.96,8.862,8.862,0,0,0,.11-1.5,5.943,5.943,0,0,0-.29-2.08Z" fill="#fff"/></g></svg>