<svg xmlns="http://www.w3.org/2000/svg" width="300" height="300" viewBox="0 0 300 300"><title>TSLA.USArtboard 1</title><g id="ec39a33b-2299-475c-a8af-35789acc639c" data-name="Layer 2 copy"><rect width="300" height="300" fill="#e82127"/></g><g id="bf877324-6f77-401c-b51a-b2a88ef926be" data-name="Layer 38"><path d="M150.01,193l11.89-67.95c11.34,0,14.91,1.26,15.43,6.42,0,0,7.6-2.88,11.44-8.73a82.768,82.768,0,0,0-30-7.36L150,126.24h.02l-8.77-10.86a82.972,82.972,0,0,0-30,7.36c3.83,5.85,11.44,8.73,11.44,8.73.52-5.16,4.09-6.42,15.35-6.43L150.03,193Z" fill="#fff"/><path d="M150,112.23a96.669,96.669,0,0,1,40.12,8.18,32.07,32.07,0,0,0,2.38-5,111.592,111.592,0,0,0-85,0,41.681,41.681,0,0,0,2.38,5A96.639,96.639,0,0,1,150,112.23Z" fill="#fff"/></g></svg>