<svg id="UKOUSD" xmlns="http://www.w3.org/2000/svg" xmlns:xlink="http://www.w3.org/1999/xlink" width="70" height="70" viewBox="0 0 70 70">
  <defs>
    <clipPath id="clip-path">
      <rect id="Rectangle_19498" data-name="Rectangle 19498" width="30.81" height="50" fill="#3c2b2c"/>
    </clipPath>
  </defs>
  <rect id="Rectangle_13501" data-name="Rectangle 13501" width="70" height="70" fill="rgba(11,239,160,0.47)" opacity="0"/>
  <g id="Group_30161" data-name="Group 30161" transform="translate(19.595 10)">
    <g id="Group_30161-2" data-name="Group 30161" clip-path="url(#clip-path)">
      <path id="Path_47574" data-name="Path 47574" d="M384.212,72.919c-1.591,0-2.881.307-2.881.687s1.29.687,2.881.687,2.881-.307,2.881-.687-1.29-.687-2.881-.687m1.055.914c-.527,0-.954-.1-.954-.227s.427-.227.954-.227.954.1.954.227-.427.227-.954.227" transform="translate(-360.708 -68.975)" fill="#3c2b2c"/>
      <path id="Path_47575" data-name="Path 47575" d="M29.49,43.752V38.7a2.356,2.356,0,0,0,1.32-1.934,2.356,2.356,0,0,0-1.32-1.934V15.167a2.356,2.356,0,0,0,1.32-1.934A2.356,2.356,0,0,0,29.49,11.3V6.248a2.356,2.356,0,0,0,1.32-1.934c0-.8-.53-1.5-1.574-2.086A13.244,13.244,0,0,0,25.9,1.039,47.411,47.411,0,0,0,15.4,0,47.411,47.411,0,0,0,4.913,1.039,13.246,13.246,0,0,0,1.574,2.228C.53,2.816,0,3.518,0,4.314A2.356,2.356,0,0,0,1.32,6.248V11.3A2.356,2.356,0,0,0,0,13.233a2.356,2.356,0,0,0,1.32,1.934V34.833A2.356,2.356,0,0,0,0,36.767,2.356,2.356,0,0,0,1.32,38.7v5.051A2.356,2.356,0,0,0,0,45.686c0,.8.529,1.5,1.574,2.086a13.251,13.251,0,0,0,3.339,1.189A47.408,47.408,0,0,0,15.405,50c6.241,0,11.758-.927,14.055-2.361a2.083,2.083,0,0,0,.029-3.887m-.209-29.536c.062-.041.124-.083.186-.124l0,0a.034.034,0,0,1,.047.009.033.033,0,0,1-.005.043,3.855,3.855,0,0,1-.752.518,7.985,7.985,0,0,1-.825.386,15.191,15.191,0,0,1-1.728.565,30.223,30.223,0,0,1-3.564.69q-.9.124-1.8.212t-1.809.144c-.6.038-1.208.065-1.813.084s-1.21.027-1.815.03-1.21-.011-1.815-.03-1.209-.047-1.813-.085-1.207-.086-1.809-.144-1.2-.129-1.8-.212a30.433,30.433,0,0,1-3.48-.668L4.6,15.611a15.026,15.026,0,0,1-1.727-.565l-.145-.06-.066-.029-.125-.273q.073.028.148.053.137.047.275.09c.428.132.862.245,1.3.341q.216.047.432.089.876.179,1.765.3c.3.038.592.079.889.114.148.019.3.033.445.05l.446.047c.149.016.3.03.446.043s.3.028.447.038l.447.037.447.033c.6.038,1.193.076,1.791.1s1.2.047,1.794.059,1.2.02,1.8.019,1.2-.006,1.8-.019,1.2-.033,1.794-.058,1.194-.062,1.791-.1l.447-.033.447-.037c.149-.011.3-.026.446-.039s.3-.027.446-.043c.3-.03.594-.062.891-.1s.592-.075.888-.114q.888-.12,1.765-.3a16.219,16.219,0,0,0,1.733-.43,7.929,7.929,0,0,0,.836-.308c.068-.03.136-.059.2-.091l.2-.1ZM23.319,28.2A7.914,7.914,0,1,1,15.4,20.284,7.914,7.914,0,0,1,23.319,28.2M1.687,4.314h0c0-.008.269-.835,3.617-1.633a45.709,45.709,0,0,1,10.1-.993,45.71,45.71,0,0,1,10.1.993c3.347.8,3.617,1.625,3.617,1.633h0c0,.011-.276.837-3.617,1.633a45.71,45.71,0,0,1-10.1.993A45.709,45.709,0,0,1,5.3,5.947c-3.341-.8-3.616-1.622-3.617-1.633M28.761,38.193a7.963,7.963,0,0,1-.825.386,15.181,15.181,0,0,1-1.728.565,30.2,30.2,0,0,1-3.564.69q-.9.124-1.8.212t-1.809.144c-.6.038-1.208.065-1.813.084s-1.21.027-1.815.03-1.21-.011-1.815-.03-1.209-.047-1.813-.085-1.207-.086-1.809-.144-1.2-.129-1.8-.212A30.845,30.845,0,0,1,4.811,39.2l-.21-.054a15.086,15.086,0,0,1-1.717-.561l-.011,0q-.29-.116-.57-.255c-.021-.046-.041-.092-.059-.139-.012-.031-.024-.063-.035-.1q.355.149.724.263l.027.008a15.941,15.941,0,0,0,1.63.409l.1.02q.876.179,1.765.3c.3.038.592.079.889.114.148.019.3.033.445.05l.446.047c.149.016.3.03.446.043s.3.028.447.038l.447.037.447.033c.6.038,1.193.076,1.791.1s1.2.047,1.794.059,1.2.02,1.8.019,1.2-.005,1.8-.019,1.2-.033,1.794-.058,1.194-.062,1.791-.1l.447-.033.447-.037c.149-.011.3-.026.446-.039s.3-.027.446-.043c.3-.03.594-.062.891-.1s.592-.076.888-.114q.888-.12,1.765-.3a16.219,16.219,0,0,0,1.733-.43,7.939,7.939,0,0,0,.836-.308c.068-.03.136-.059.2-.091l.2-.1.193-.113c.062-.041.124-.083.186-.124l0,0a.034.034,0,0,1,.047.009.034.034,0,0,1-.005.043,3.854,3.854,0,0,1-.752.518" transform="translate(0)" fill="#3c2b2c"/>
      <path id="Path_47576" data-name="Path 47576" d="M218.285,422.5q-.02-.106-.046-.21c-.015-.061-.032-.122-.05-.182s-.035-.114-.055-.171a4.41,4.41,0,0,0-.465-.944q-.855-1.324-1.629-2.7c-.5-.894-.975-1.8-1.476-2.7a.267.267,0,0,0-.493,0c-.5.894-.975,1.8-1.476,2.7q-.771,1.375-1.629,2.7a4.413,4.413,0,0,0-.465.944q-.03.085-.055.171t-.05.182q-.026.1-.046.21a3.554,3.554,0,0,0-.064.665q0,.133.011.266.008.1.023.207c.013.088.029.175.05.263s.037.149.061.223q.042.135.1.266a3.956,3.956,0,0,0,1.335,1.671q.065.048.132.093l.009.006c.049.033.1.065.148.1q.177.11.362.2a3.931,3.931,0,0,0,3.614,0c.123-.061.245-.129.362-.2.05-.031.1-.063.148-.1l.009-.006q.067-.045.132-.093a3.955,3.955,0,0,0,1.335-1.671q.053-.131.1-.266.035-.111.061-.223.031-.131.05-.263.015-.1.023-.207.011-.133.011-.266a3.555,3.555,0,0,0-.064-.665m-.4,1.045a2.3,2.3,0,0,1-2.144,2.123,2.326,2.326,0,0,1-.239,0,.071.071,0,0,1-.017-.139,2.676,2.676,0,0,0,1.779-2.666,3.227,3.227,0,0,0-.106-.823.123.123,0,0,1,.214-.108,2.282,2.282,0,0,1,.512,1.611" transform="translate(-198.912 -392.962)" fill="#3c2b2c"/>
    </g>
  </g>
</svg>
